<svg width="600.000000" height="600.000000" viewBox="0 0 600 600" fill="none" xmlns="http://www.w3.org/2000/svg" xmlns:xlink="http://www.w3.org/1999/xlink">
	<desc>
			Created with Pixso.
	</desc>
	<defs>
		<clipPath id="clip8_414">
			<rect id="TT_4_AC" width="600.000000" height="600.000000" fill="white" fill-opacity="0"/>
		</clipPath>
	</defs>
	<rect id="TT_4_AC" width="600.000000" height="600.000000" fill="#FFFFFF" fill-opacity="0"/>
	<g clip-path="url(#clip8_414)">
		<path id="Vector" d="M137 194L137 188L189.5 188L189.5 194L137 194Z" fill="#000000" fill-opacity="1.000000" fill-rule="evenodd"/>
		<path id="Vector" d="M437 194L437 188L489.5 188L489.5 194L437 194Z" fill="#000000" fill-opacity="1.000000" fill-rule="evenodd"/>
		<path id="Vector" d="M140 76L140 70L192.5 70L192.5 76L140 76Z" fill="#000000" fill-opacity="1.000000" fill-rule="evenodd"/>
		<path id="Vector" d="M440 76L440 70L492.5 70L492.5 76L440 76Z" fill="#000000" fill-opacity="1.000000" fill-rule="evenodd"/>
		<path id="Vector" d="M137 312L137 306L189.5 306L189.5 312L137 312Z" fill="#000000" fill-opacity="1.000000" fill-rule="evenodd"/>
		<path id="Vector" d="M437 312L437 306L489.5 306L489.5 312L437 312Z" fill="#000000" fill-opacity="1.000000" fill-rule="evenodd"/>
		<path id="Vector" d="M137 430L137 424L189.5 424L189.5 430L137 430Z" fill="#000000" fill-opacity="1.000000" fill-rule="evenodd"/>
		<path id="Vector" d="M437 430L437 424L489.5 424L489.5 430L437 430Z" fill="#000000" fill-opacity="1.000000" fill-rule="evenodd"/>
		<path id="Vector" d="M137 294L137 288L189.5 288L189.5 294L137 294Z" fill="#000000" fill-opacity="1.000000" fill-rule="evenodd"/>
		<path id="Vector" d="M437 294L437 288L489.5 288L489.5 294L437 294Z" fill="#000000" fill-opacity="1.000000" fill-rule="evenodd"/>
		<path id="Vector" d="M140 176L140 170L192.5 170L192.5 176L140 176Z" fill="#000000" fill-opacity="1.000000" fill-rule="evenodd"/>
		<path id="Vector" d="M440 176L440 170L492.5 170L492.5 176L440 176Z" fill="#000000" fill-opacity="1.000000" fill-rule="evenodd"/>
		<path id="Vector" d="M137 412L137 406L189.5 406L189.5 412L137 412Z" fill="#000000" fill-opacity="1.000000" fill-rule="evenodd"/>
		<path id="Vector" d="M437 412L437 406L489.5 406L489.5 412L437 412Z" fill="#000000" fill-opacity="1.000000" fill-rule="evenodd"/>
		<path id="Vector" d="M137 530L137 524L189.5 524L189.5 530L137 530Z" fill="#000000" fill-opacity="1.000000" fill-rule="evenodd"/>
		<path id="Vector" d="M437 530L437 524L489.5 524L489.5 530L437 530Z" fill="#000000" fill-opacity="1.000000" fill-rule="evenodd"/>
		<path id="Vector" d="M136 244L136 238L139.75 238L139.75 244L136 244Z" fill="#000000" fill-opacity="1.000000" fill-rule="evenodd"/>
		<path id="Vector" d="M436 244L436 238L439.75 238L439.75 244L436 244Z" fill="#000000" fill-opacity="1.000000" fill-rule="evenodd"/>
		<path id="Vector" d="M139 126L139 120L142.75 120L142.75 126L139 126Z" fill="#000000" fill-opacity="1.000000" fill-rule="evenodd"/>
		<path id="Vector" d="M439 126L439 120L442.75 120L442.75 126L439 126Z" fill="#000000" fill-opacity="1.000000" fill-rule="evenodd"/>
		<path id="Vector" d="M136 362L136 356L139.75 356L139.75 362L136 362Z" fill="#000000" fill-opacity="1.000000" fill-rule="evenodd"/>
		<path id="Vector" d="M436 362L436 356L439.75 356L439.75 362L436 362Z" fill="#000000" fill-opacity="1.000000" fill-rule="evenodd"/>
		<path id="Vector" d="M136 480L136 474L139.75 474L139.75 480L136 480Z" fill="#000000" fill-opacity="1.000000" fill-rule="evenodd"/>
		<path id="Vector" d="M436 480L436 474L439.75 474L439.75 480L436 480Z" fill="#000000" fill-opacity="1.000000" fill-rule="evenodd"/>
		<mask id="mask_8_353" fill="white">
			<path id="Subtract" d="M137.161 188.006C123.215 188.323 112 200.736 112 216.003C112 231.27 123.215 243.683 137.161 244L137.161 237.998C126.529 237.674 118 227.951 118 216.003C118 204.055 126.529 194.332 137.161 194.008L137.161 188.006Z" clip-rule="evenodd" fill="" fill-opacity="1.000000" fill-rule="evenodd"/>
		</mask>
		<path id="Subtract" d="M137.161 188.006C123.215 188.323 112 200.736 112 216.003C112 231.27 123.215 243.683 137.161 244L137.161 237.998C126.529 237.674 118 227.951 118 216.003C118 204.055 126.529 194.332 137.161 194.008L137.161 188.006Z" clip-rule="evenodd" fill="#000000" fill-opacity="0.000000" fill-rule="evenodd" mask="url(#mask_8_353)"/>
		<path id="Subtract" d="M112 216.003C112 203.002 120.134 192.07 131.161 188.916C132.987 188.394 134.893 188.085 136.854 188.015C136.956 188.011 137.058 188.008 137.161 188.006L137.161 194.008Q137.104 194.01 137.05 194.012C132.439 194.18 128.229 196.118 124.946 199.235C124.183 199.96 123.47 200.749 122.813 201.594C119.815 205.454 118 210.492 118 216.003C118 221.514 119.815 226.552 122.813 230.412C123.47 231.257 124.183 232.046 124.946 232.77C128.229 235.888 132.439 237.825 137.05 237.994Q137.104 237.996 137.161 237.998L137.161 244C137.058 243.998 136.956 243.995 136.854 243.991C134.893 243.921 132.987 243.612 131.161 243.09C120.134 239.936 112 229.004 112 216.003Z" clip-rule="evenodd" fill="#000000" fill-opacity="1.000000" fill-rule="evenodd"/>
		<mask id="mask_8_438" fill="white">
			<path id="Subtract" d="M437.161 188.006C423.215 188.323 412 200.736 412 216.003C412 231.27 423.215 243.683 437.161 244L437.161 237.998C426.529 237.674 418 227.951 418 216.003C418 204.055 426.529 194.332 437.161 194.008L437.161 188.006Z" clip-rule="evenodd" fill="" fill-opacity="1.000000" fill-rule="evenodd"/>
		</mask>
		<path id="Subtract" d="M437.161 188.006C423.215 188.323 412 200.736 412 216.003C412 231.27 423.215 243.683 437.161 244L437.161 237.998C426.529 237.674 418 227.951 418 216.003C418 204.055 426.529 194.332 437.161 194.008L437.161 188.006Z" clip-rule="evenodd" fill="#000000" fill-opacity="0.000000" fill-rule="evenodd" mask="url(#mask_8_438)"/>
		<path id="Subtract" d="M412 216.003C412 203.002 420.134 192.07 431.161 188.916C432.99 188.393 434.899 188.084 436.863 188.014C436.962 188.011 437.062 188.008 437.161 188.006L437.161 194.008Q437.105 194.01 437.051 194.012C432.44 194.18 428.229 196.118 424.946 199.235C424.183 199.96 423.47 200.749 422.813 201.594C419.815 205.454 418 210.492 418 216.003C418 221.514 419.815 226.552 422.813 230.412C423.47 231.257 424.183 232.046 424.946 232.77C428.229 235.888 432.44 237.826 437.051 237.994Q437.105 237.996 437.161 237.998L437.161 244C437.062 243.998 436.962 243.995 436.863 243.991C434.899 243.922 432.99 243.613 431.161 243.09C420.134 239.936 412 229.004 412 216.003Z" clip-rule="evenodd" fill="#000000" fill-opacity="1.000000" fill-rule="evenodd"/>
		<mask id="mask_8_420" fill="white">
			<path id="Subtract" d="M140.161 70.0059C126.215 70.3232 115 82.7363 115 98.0029C115 113.27 126.215 125.683 140.161 126L140.161 119.998C129.529 119.674 121 109.951 121 98.0029C121 86.0552 129.529 76.3315 140.161 76.0078L140.161 70.0059Z" clip-rule="evenodd" fill="" fill-opacity="1.000000" fill-rule="evenodd"/>
		</mask>
		<path id="Subtract" d="M140.161 70.0059C126.215 70.3232 115 82.7363 115 98.0029C115 113.27 126.215 125.683 140.161 126L140.161 119.998C129.529 119.674 121 109.951 121 98.0029C121 86.0552 129.529 76.3315 140.161 76.0078L140.161 70.0059Z" clip-rule="evenodd" fill="#000000" fill-opacity="0.000000" fill-rule="evenodd" mask="url(#mask_8_420)"/>
		<path id="Subtract" d="M115 98.0029C115 85.0017 123.134 74.07 134.161 70.916C135.987 70.3936 137.893 70.0846 139.854 70.0148C139.956 70.0112 140.058 70.0082 140.161 70.0059L140.161 76.0078Q140.106 76.0096 140.05 76.0115C135.439 76.1804 131.229 78.1177 127.946 81.2354C127.183 81.9603 126.469 82.749 125.813 83.5941C122.815 87.4545 121 92.4921 121 98.0029C121 103.514 122.815 108.551 125.813 112.412C126.469 113.257 127.183 114.046 127.946 114.77C131.229 117.888 135.439 119.825 140.05 119.994Q140.106 119.996 140.161 119.998L140.161 126C140.058 125.998 139.956 125.995 139.854 125.991C137.893 125.921 135.987 125.612 134.161 125.09C123.134 121.936 115 111.004 115 98.0029Z" clip-rule="evenodd" fill="#000000" fill-opacity="1.000000" fill-rule="evenodd"/>
		<mask id="mask_8_441" fill="white">
			<path id="Subtract" d="M440.161 70.0059C426.215 70.3232 415 82.7363 415 98.0029C415 113.27 426.215 125.683 440.161 126L440.161 119.998C429.529 119.674 421 109.951 421 98.0029C421 86.0552 429.529 76.3315 440.161 76.0078L440.161 70.0059Z" clip-rule="evenodd" fill="" fill-opacity="1.000000" fill-rule="evenodd"/>
		</mask>
		<path id="Subtract" d="M440.161 70.0059C426.215 70.3232 415 82.7363 415 98.0029C415 113.27 426.215 125.683 440.161 126L440.161 119.998C429.529 119.674 421 109.951 421 98.0029C421 86.0552 429.529 76.3315 440.161 76.0078L440.161 70.0059Z" clip-rule="evenodd" fill="#000000" fill-opacity="0.000000" fill-rule="evenodd" mask="url(#mask_8_441)"/>
		<path id="Subtract" d="M415 98.0029C415 85.0017 423.134 74.07 434.161 70.916C435.99 70.3928 437.899 70.0836 439.863 70.0145C439.962 70.011 440.062 70.0081 440.161 70.0059L440.161 76.0078Q440.105 76.0096 440.051 76.0115C435.44 76.1802 431.229 78.1175 427.946 81.2352C427.183 81.9602 426.47 82.7489 425.813 83.5941C422.815 87.4545 421 92.4921 421 98.0029C421 103.514 422.815 108.551 425.813 112.412C426.47 113.257 427.183 114.046 427.946 114.771C431.229 117.888 435.44 119.826 440.051 119.994Q440.105 119.996 440.161 119.998L440.161 126C440.062 125.998 439.962 125.995 439.863 125.991C437.899 125.922 435.99 125.613 434.161 125.09C423.134 121.936 415 111.004 415 98.0029Z" clip-rule="evenodd" fill="#000000" fill-opacity="1.000000" fill-rule="evenodd"/>
		<mask id="mask_8_362" fill="white">
			<path id="Subtract" d="M137.161 306.006C123.215 306.323 112 318.736 112 334.003C112 349.27 123.215 361.683 137.161 362L137.161 355.998C126.529 355.674 118 345.951 118 334.003C118 322.055 126.529 312.332 137.161 312.008L137.161 306.006Z" clip-rule="evenodd" fill="" fill-opacity="1.000000" fill-rule="evenodd"/>
		</mask>
		<path id="Subtract" d="M137.161 306.006C123.215 306.323 112 318.736 112 334.003C112 349.27 123.215 361.683 137.161 362L137.161 355.998C126.529 355.674 118 345.951 118 334.003C118 322.055 126.529 312.332 137.161 312.008L137.161 306.006Z" clip-rule="evenodd" fill="#000000" fill-opacity="0.000000" fill-rule="evenodd" mask="url(#mask_8_362)"/>
		<path id="Subtract" d="M112 334.003C112 321.002 120.134 310.07 131.161 306.916C132.987 306.394 134.892 306.085 136.853 306.015C136.956 306.011 137.058 306.008 137.161 306.006L137.161 312.008Q137.102 312.01 137.043 312.012C132.435 312.182 128.227 314.119 124.946 317.235C124.183 317.96 123.469 318.749 122.813 319.594C119.815 323.455 118 328.492 118 334.003C118 339.514 119.815 344.551 122.813 348.412C123.469 349.257 124.183 350.046 124.946 350.771C128.227 353.887 132.435 355.823 137.043 355.994Q137.102 355.996 137.161 355.998L137.161 362C137.058 361.998 136.956 361.995 136.853 361.991C134.892 361.921 132.987 361.612 131.161 361.09C120.134 357.936 112 347.004 112 334.003Z" clip-rule="evenodd" fill="#000000" fill-opacity="1.000000" fill-rule="evenodd"/>
		<mask id="mask_8_444" fill="white">
			<path id="Subtract" d="M437.161 306.006C423.215 306.323 412 318.736 412 334.003C412 349.27 423.215 361.683 437.161 362L437.161 355.998C426.529 355.674 418 345.951 418 334.003C418 322.055 426.529 312.332 437.161 312.008L437.161 306.006Z" clip-rule="evenodd" fill="" fill-opacity="1.000000" fill-rule="evenodd"/>
		</mask>
		<path id="Subtract" d="M437.161 306.006C423.215 306.323 412 318.736 412 334.003C412 349.27 423.215 361.683 437.161 362L437.161 355.998C426.529 355.674 418 345.951 418 334.003C418 322.055 426.529 312.332 437.161 312.008L437.161 306.006Z" clip-rule="evenodd" fill="#000000" fill-opacity="0.000000" fill-rule="evenodd" mask="url(#mask_8_444)"/>
		<path id="Subtract" d="M412 334.003C412 321.002 420.134 310.07 431.161 306.916C432.99 306.393 434.899 306.084 436.863 306.014C436.962 306.011 437.062 306.008 437.161 306.006L437.161 312.008Q437.104 312.01 437.051 312.011C432.44 312.18 428.23 314.117 424.946 317.235C424.183 317.96 423.47 318.749 422.813 319.594C419.815 323.455 418 328.492 418 334.003C418 339.514 419.815 344.551 422.813 348.412C423.47 349.257 424.183 350.046 424.946 350.771C428.23 353.889 432.44 355.826 437.051 355.994Q437.104 355.996 437.161 355.998L437.161 362C437.062 361.998 436.962 361.995 436.863 361.991C434.899 361.922 432.99 361.613 431.161 361.09C420.134 357.936 412 347.004 412 334.003Z" clip-rule="evenodd" fill="#000000" fill-opacity="1.000000" fill-rule="evenodd"/>
		<mask id="mask_8_371" fill="white">
			<path id="Subtract" d="M137.161 424.006C123.215 424.323 112 436.736 112 452.003C112 467.27 123.215 479.683 137.161 480L137.161 473.998C126.529 473.674 118 463.951 118 452.003C118 440.055 126.529 430.332 137.161 430.008L137.161 424.006Z" clip-rule="evenodd" fill="" fill-opacity="1.000000" fill-rule="evenodd"/>
		</mask>
		<path id="Subtract" d="M137.161 424.006C123.215 424.323 112 436.736 112 452.003C112 467.27 123.215 479.683 137.161 480L137.161 473.998C126.529 473.674 118 463.951 118 452.003C118 440.055 126.529 430.332 137.161 430.008L137.161 424.006Z" clip-rule="evenodd" fill="#000000" fill-opacity="0.000000" fill-rule="evenodd" mask="url(#mask_8_371)"/>
		<path id="Subtract" d="M112 452.003C112 439.002 120.134 428.07 131.161 424.916C132.987 424.394 134.892 424.085 136.853 424.015C136.956 424.011 137.058 424.008 137.161 424.006L137.161 430.008Q137.102 430.01 137.043 430.012C132.435 430.182 128.227 432.119 124.946 435.235C124.183 435.96 123.469 436.749 122.813 437.594C119.815 441.455 118 446.492 118 452.003C118 457.514 119.815 462.551 122.813 466.412C123.469 467.257 124.183 468.046 124.946 468.771C128.227 471.887 132.435 473.823 137.043 473.994Q137.102 473.996 137.161 473.998L137.161 480C137.058 479.998 136.956 479.995 136.853 479.991C134.892 479.921 132.987 479.612 131.161 479.09C120.134 475.936 112 465.004 112 452.003Z" clip-rule="evenodd" fill="#000000" fill-opacity="1.000000" fill-rule="evenodd"/>
		<mask id="mask_8_447" fill="white">
			<path id="Subtract" d="M437.161 424.006C423.215 424.323 412 436.736 412 452.003C412 467.27 423.215 479.683 437.161 480L437.161 473.998C426.529 473.674 418 463.951 418 452.003C418 440.055 426.529 430.332 437.161 430.008L437.161 424.006Z" clip-rule="evenodd" fill="" fill-opacity="1.000000" fill-rule="evenodd"/>
		</mask>
		<path id="Subtract" d="M437.161 424.006C423.215 424.323 412 436.736 412 452.003C412 467.27 423.215 479.683 437.161 480L437.161 473.998C426.529 473.674 418 463.951 418 452.003C418 440.055 426.529 430.332 437.161 430.008L437.161 424.006Z" clip-rule="evenodd" fill="#000000" fill-opacity="0.000000" fill-rule="evenodd" mask="url(#mask_8_447)"/>
		<path id="Subtract" d="M412 452.003C412 439.002 420.134 428.07 431.161 424.916C432.99 424.393 434.899 424.084 436.863 424.014C436.962 424.011 437.062 424.008 437.161 424.006L437.161 430.008Q437.104 430.01 437.051 430.011C432.44 430.18 428.23 432.117 424.946 435.235C424.183 435.96 423.47 436.749 422.813 437.594C419.815 441.455 418 446.492 418 452.003C418 457.514 419.815 462.551 422.813 466.412C423.47 467.257 424.183 468.046 424.946 468.771C428.23 471.889 432.44 473.826 437.051 473.994Q437.104 473.996 437.161 473.998L437.161 480C437.062 479.998 436.962 479.995 436.863 479.991C434.899 479.922 432.99 479.613 431.161 479.09C420.134 475.936 412 465.004 412 452.003Z" clip-rule="evenodd" fill="#000000" fill-opacity="1.000000" fill-rule="evenodd"/>
		<mask id="mask_8_380" fill="white">
			<path id="Subtract" d="M137.161 238C123.215 238.317 112 250.729 112 265.994C112 281.259 123.215 293.671 137.161 293.988L137.161 287.986C126.529 287.662 118 277.94 118 265.994C118 254.048 126.529 244.326 137.161 244.002L137.161 238Z" clip-rule="evenodd" fill="" fill-opacity="1.000000" fill-rule="evenodd"/>
		</mask>
		<path id="Subtract" d="M137.161 238C123.215 238.317 112 250.729 112 265.994C112 281.259 123.215 293.671 137.161 293.988L137.161 287.986C126.529 287.662 118 277.94 118 265.994C118 254.048 126.529 244.326 137.161 244.002L137.161 238Z" clip-rule="evenodd" fill="#000000" fill-opacity="0.000000" fill-rule="evenodd" mask="url(#mask_8_380)"/>
		<path id="Subtract" d="M112 265.994C112 252.994 120.134 242.064 131.161 238.91C132.987 238.388 134.893 238.079 136.854 238.009C136.956 238.005 137.058 238.002 137.161 238L137.161 244.002Q137.108 244.004 137.052 244.006C132.443 244.174 128.235 246.109 124.952 249.223C124.186 249.95 123.47 250.741 122.812 251.589C119.814 255.448 118 260.485 118 265.994C118 271.512 119.82 276.556 122.827 280.418C123.475 281.25 124.177 282.028 124.929 282.743C128.241 285.895 132.499 287.844 137.161 287.986L137.161 293.988C137.056 293.985 136.951 293.982 136.846 293.979C134.888 293.908 132.985 293.6 131.161 293.078C120.134 289.924 112 278.994 112 265.994Z" clip-rule="evenodd" fill="#000000" fill-opacity="1.000000" fill-rule="evenodd"/>
		<mask id="mask_8_450" fill="white">
			<path id="Subtract" d="M437.161 238C423.215 238.317 412 250.729 412 265.994C412 281.259 423.215 293.671 437.161 293.988L437.161 287.986C426.529 287.662 418 277.94 418 265.994C418 254.048 426.529 244.326 437.161 244.002L437.161 238Z" clip-rule="evenodd" fill="" fill-opacity="1.000000" fill-rule="evenodd"/>
		</mask>
		<path id="Subtract" d="M437.161 238C423.215 238.317 412 250.729 412 265.994C412 281.259 423.215 293.671 437.161 293.988L437.161 287.986C426.529 287.662 418 277.94 418 265.994C418 254.048 426.529 244.326 437.161 244.002L437.161 238Z" clip-rule="evenodd" fill="#000000" fill-opacity="0.000000" fill-rule="evenodd" mask="url(#mask_8_450)"/>
		<path id="Subtract" d="M412 265.994C412 252.994 420.134 242.064 431.161 238.91C432.987 238.388 434.893 238.079 436.854 238.009C436.956 238.005 437.058 238.002 437.161 238L437.161 244.002Q437.104 244.004 437.051 244.006C432.443 244.174 428.235 246.109 424.953 249.223C424.185 249.951 423.467 250.744 422.807 251.594C419.812 255.453 418 260.487 418 265.994C418 271.513 419.82 276.557 422.827 280.419C423.475 281.251 424.177 282.028 424.929 282.743C428.241 285.894 432.499 287.844 437.161 287.986L437.161 293.988C437.056 293.985 436.951 293.982 436.846 293.979C434.888 293.908 432.985 293.6 431.161 293.078C420.134 289.924 412 278.994 412 265.994Z" clip-rule="evenodd" fill="#000000" fill-opacity="1.000000" fill-rule="evenodd"/>
		<mask id="mask_8_423" fill="white">
			<path id="Subtract" d="M140.161 120C126.215 120.317 115 132.729 115 147.994C115 163.259 126.215 175.671 140.161 175.988L140.161 169.986C129.529 169.662 121 159.94 121 147.994C121 136.048 129.529 126.326 140.161 126.002L140.161 120Z" clip-rule="evenodd" fill="" fill-opacity="1.000000" fill-rule="evenodd"/>
		</mask>
		<path id="Subtract" d="M140.161 120C126.215 120.317 115 132.729 115 147.994C115 163.259 126.215 175.671 140.161 175.988L140.161 169.986C129.529 169.662 121 159.94 121 147.994C121 136.048 129.529 126.326 140.161 126.002L140.161 120Z" clip-rule="evenodd" fill="#000000" fill-opacity="0.000000" fill-rule="evenodd" mask="url(#mask_8_423)"/>
		<path id="Subtract" d="M115 147.994C115 134.994 123.134 124.064 134.161 120.91C135.987 120.388 137.892 120.079 139.853 120.009C139.956 120.005 140.058 120.002 140.161 120L140.161 126.002Q140.106 126.004 140.052 126.006C135.443 126.174 131.235 128.109 127.952 131.223C127.186 131.95 126.47 132.741 125.812 133.589C122.814 137.448 121 142.485 121 147.994C121 153.512 122.82 158.556 125.827 162.418C126.474 163.25 127.177 164.027 127.929 164.743C131.241 167.895 135.499 169.844 140.161 169.986L140.161 169.986L140.161 175.988C140.056 175.985 139.951 175.982 139.846 175.979C137.887 175.908 135.985 175.599 134.161 175.078C123.134 171.924 115 160.994 115 147.994Z" clip-rule="evenodd" fill="#000000" fill-opacity="1.000000" fill-rule="evenodd"/>
		<mask id="mask_8_453" fill="white">
			<path id="Subtract" d="M440.161 120C426.215 120.317 415 132.729 415 147.994C415 163.259 426.215 175.671 440.161 175.988L440.161 169.986C429.529 169.662 421 159.94 421 147.994C421 136.048 429.529 126.326 440.161 126.002L440.161 120Z" clip-rule="evenodd" fill="" fill-opacity="1.000000" fill-rule="evenodd"/>
		</mask>
		<path id="Subtract" d="M440.161 120C426.215 120.317 415 132.729 415 147.994C415 163.259 426.215 175.671 440.161 175.988L440.161 169.986C429.529 169.662 421 159.94 421 147.994C421 136.048 429.529 126.326 440.161 126.002L440.161 120Z" clip-rule="evenodd" fill="#000000" fill-opacity="0.000000" fill-rule="evenodd" mask="url(#mask_8_453)"/>
		<path id="Subtract" d="M415 147.994C415 134.994 423.134 124.064 434.161 120.91C435.987 120.388 437.892 120.079 439.853 120.009C439.956 120.005 440.058 120.002 440.161 120L440.161 126.002Q440.107 126.004 440.051 126.006C435.443 126.174 431.235 128.109 427.953 131.223C427.185 131.951 426.467 132.744 425.807 133.594C422.812 137.453 421 142.487 421 147.994C421 153.513 422.82 158.556 425.827 162.418C426.475 163.25 427.177 164.027 427.929 164.743C431.24 167.894 435.499 169.844 440.161 169.986L440.161 175.988C440.056 175.985 439.951 175.982 439.846 175.979C437.887 175.908 435.985 175.599 434.161 175.078C423.134 171.924 415 160.994 415 147.994Z" clip-rule="evenodd" fill="#000000" fill-opacity="1.000000" fill-rule="evenodd"/>
		<mask id="mask_8_389" fill="white">
			<path id="Subtract" d="M137.161 356C123.215 356.317 112 368.729 112 383.994C112 399.259 123.215 411.671 137.161 411.988L137.161 405.986C126.529 405.662 118 395.94 118 383.994C118 372.048 126.529 362.326 137.161 362.002L137.161 356Z" clip-rule="evenodd" fill="" fill-opacity="1.000000" fill-rule="evenodd"/>
		</mask>
		<path id="Subtract" d="M137.161 356C123.215 356.317 112 368.729 112 383.994C112 399.259 123.215 411.671 137.161 411.988L137.161 405.986C126.529 405.662 118 395.94 118 383.994C118 372.048 126.529 362.326 137.161 362.002L137.161 356Z" clip-rule="evenodd" fill="#000000" fill-opacity="0.000000" fill-rule="evenodd" mask="url(#mask_8_389)"/>
		<path id="Subtract" d="M112 383.994C112 370.994 120.134 360.064 131.161 356.91C132.987 356.388 134.892 356.079 136.853 356.009C136.955 356.005 137.058 356.002 137.161 356L137.161 362.002Q137.105 362.004 137.052 362.006C132.443 362.174 128.235 364.109 124.953 367.223C124.185 367.951 123.467 368.744 122.807 369.595C119.812 373.453 118 378.487 118 383.994C118 389.512 119.82 394.556 122.827 398.418C123.475 399.25 124.177 400.028 124.929 400.743C128.241 403.895 132.499 405.844 137.161 405.986L137.161 411.988C137.056 411.985 136.951 411.982 136.846 411.979C134.888 411.908 132.985 411.6 131.161 411.078C120.134 407.924 112 396.994 112 383.994Z" clip-rule="evenodd" fill="#000000" fill-opacity="1.000000" fill-rule="evenodd"/>
		<mask id="mask_8_456" fill="white">
			<path id="Subtract" d="M437.161 356C423.215 356.317 412 368.729 412 383.994C412 399.259 423.215 411.671 437.161 411.988L437.161 405.986C426.529 405.662 418 395.94 418 383.994C418 372.048 426.529 362.326 437.161 362.002L437.161 356Z" clip-rule="evenodd" fill="" fill-opacity="1.000000" fill-rule="evenodd"/>
		</mask>
		<path id="Subtract" d="M437.161 356C423.215 356.317 412 368.729 412 383.994C412 399.259 423.215 411.671 437.161 411.988L437.161 405.986C426.529 405.662 418 395.94 418 383.994C418 372.048 426.529 362.326 437.161 362.002L437.161 356Z" clip-rule="evenodd" fill="#000000" fill-opacity="0.000000" fill-rule="evenodd" mask="url(#mask_8_456)"/>
		<path id="Subtract" d="M412 383.994C412 370.994 420.134 360.064 431.161 356.91C432.987 356.388 434.892 356.079 436.853 356.009C436.955 356.005 437.058 356.002 437.161 356L437.161 362.002Q437.107 362.004 437.051 362.006C432.443 362.174 428.235 364.109 424.953 367.223C424.185 367.951 423.467 368.744 422.808 369.594C419.812 373.453 418 378.487 418 383.994C418 389.513 419.82 394.557 422.827 398.419C423.475 399.251 424.177 400.028 424.929 400.743C428.241 403.894 432.499 405.844 437.161 405.986L437.161 411.988C437.056 411.985 436.951 411.982 436.846 411.979C434.888 411.908 432.985 411.6 431.161 411.078C420.134 407.924 412 396.994 412 383.994Z" clip-rule="evenodd" fill="#000000" fill-opacity="1.000000" fill-rule="evenodd"/>
		<mask id="mask_8_398" fill="white">
			<path id="Subtract" d="M137.161 474C123.215 474.317 112 486.729 112 501.994C112 517.259 123.215 529.671 137.161 529.988L137.161 523.986C126.529 523.662 118 513.94 118 501.994C118 490.048 126.529 480.326 137.161 480.002L137.161 474Z" clip-rule="evenodd" fill="" fill-opacity="1.000000" fill-rule="evenodd"/>
		</mask>
		<path id="Subtract" d="M137.161 474C123.215 474.317 112 486.729 112 501.994C112 517.259 123.215 529.671 137.161 529.988L137.161 523.986C126.529 523.662 118 513.94 118 501.994C118 490.048 126.529 480.326 137.161 480.002L137.161 474Z" clip-rule="evenodd" fill="#000000" fill-opacity="0.000000" fill-rule="evenodd" mask="url(#mask_8_398)"/>
		<path id="Subtract" d="M112 501.994C112 488.994 120.134 478.064 131.161 474.91C132.987 474.388 134.892 474.079 136.853 474.009C136.955 474.005 137.058 474.002 137.161 474L137.161 480.002Q137.105 480.004 137.052 480.006C132.443 480.174 128.235 482.109 124.953 485.223C124.185 485.951 123.467 486.744 122.807 487.595C119.812 491.453 118 496.487 118 501.994C118 507.512 119.82 512.556 122.827 516.418C123.475 517.25 124.177 518.027 124.929 518.743C128.241 521.894 132.499 523.844 137.161 523.986L137.161 529.988C137.055 529.985 136.95 529.982 136.845 529.979C134.887 529.908 132.984 529.599 131.161 529.078C120.134 525.924 112 514.994 112 501.994Z" clip-rule="evenodd" fill="#000000" fill-opacity="1.000000" fill-rule="evenodd"/>
		<mask id="mask_8_459" fill="white">
			<path id="Subtract" d="M437.161 474C423.215 474.317 412 486.729 412 501.994C412 517.259 423.215 529.671 437.161 529.988L437.161 523.986C426.529 523.662 418 513.94 418 501.994C418 490.048 426.529 480.326 437.161 480.002L437.161 474Z" clip-rule="evenodd" fill="" fill-opacity="1.000000" fill-rule="evenodd"/>
		</mask>
		<path id="Subtract" d="M437.161 474C423.215 474.317 412 486.729 412 501.994C412 517.259 423.215 529.671 437.161 529.988L437.161 523.986C426.529 523.662 418 513.94 418 501.994C418 490.048 426.529 480.326 437.161 480.002L437.161 474Z" clip-rule="evenodd" fill="#000000" fill-opacity="0.000000" fill-rule="evenodd" mask="url(#mask_8_459)"/>
		<path id="Subtract" d="M412 501.994C412 488.994 420.134 478.064 431.161 474.91C432.987 474.388 434.892 474.079 436.853 474.009C436.955 474.005 437.058 474.002 437.161 474L437.161 480.002Q437.107 480.004 437.051 480.006C432.443 480.174 428.235 482.109 424.953 485.223C424.185 485.951 423.467 486.744 422.808 487.594C419.812 491.453 418 496.487 418 501.994C418 507.513 419.82 512.557 422.827 516.419C423.475 517.251 424.178 518.028 424.929 518.743C428.241 521.895 432.499 523.844 437.161 523.986L437.161 529.988C437.055 529.985 436.95 529.982 436.845 529.979C434.887 529.908 432.984 529.599 431.161 529.078C420.134 525.924 412 514.994 412 501.994Z" clip-rule="evenodd" fill="#000000" fill-opacity="1.000000" fill-rule="evenodd"/>
		<path id="Vector 1" d="M151 -1L151 600" stroke="#000000" stroke-opacity="1.000000" stroke-width="6.000000"/>
		<path id="Vector 57" d="M451 -1L451 600" stroke="#000000" stroke-opacity="1.000000" stroke-width="6.000000"/>
		<path id="Vector 2" d="M300 0L300 601" stroke="#000000" stroke-opacity="1.000000" stroke-width="6.000000"/>
		<circle id="Ellipse 6" cx="151.000000" cy="38.000000" r="17.000000" stroke="#000000" stroke-opacity="1.000000" stroke-width="6.000000"/>
		<circle id="Ellipse 44" cx="451.000000" cy="38.000000" r="17.000000" stroke="#000000" stroke-opacity="1.000000" stroke-width="6.000000"/>
		<circle id="Ellipse 7" cx="151.000000" cy="562.000000" r="17.000000" stroke="#000000" stroke-opacity="1.000000" stroke-width="6.000000"/>
		<circle id="Ellipse 45" cx="451.000000" cy="562.000000" r="17.000000" stroke="#000000" stroke-opacity="1.000000" stroke-width="6.000000"/>
	</g>
</svg>
