<svg width="600.000000" height="70.000000" viewBox="0 0 600 70" fill="none" xmlns="http://www.w3.org/2000/svg" xmlns:xlink="http://www.w3.org/1999/xlink">
	<desc>
			Created with Pixso.
	</desc>
	<defs>
		<clipPath id="clip5_185">
			<rect id="SHINA_BOTTOM_LEFT" rx="-0.500000" width="599.000000" height="69.000000" transform="matrix(-1 0 0 1 600.5 0.5)" fill="white" fill-opacity="0"/>
		</clipPath>
	</defs>
	<rect id="SHINA_BOTTOM_LEFT" rx="-0.500000" width="599.000000" height="69.000000" transform="matrix(-1 0 0 1 600.5 0.5)" fill="#FFFFFF" fill-opacity="0"/>
	<g clip-path="url(#clip5_185)">
		<path id="Vector 41" d="M582 35L302 35" stroke="#000000" stroke-opacity="1.000000" stroke-width="6.000000"/>
		<circle id="Эллипс 15" r="15.500000" transform="matrix(-1 0 0 1 581.5 34.5)" stroke="#000000" stroke-opacity="1.000000" stroke-width="6.000000"/>
		<path id="Vector 44" d="M582 70L582 0" stroke="#000000" stroke-opacity="1.000000" stroke-width="6.000000"/>
		<path id="Многоугольник 4" d="M524.79 59.96L481.13 34.75L524.79 9.55L524.79 59.96ZM518.79 49.57L493.13 34.75L518.79 19.94L518.79 49.57Z" fill="#000000" fill-opacity="1.000000" fill-rule="evenodd"/>
	</g>
	<rect id="SHINA_BOTTOM_LEFT" rx="-0.500000" width="599.000000" height="69.000000" transform="matrix(-1 0 0 1 600.5 0.5)" stroke="#8D1B1B" stroke-opacity="0" stroke-width="1.000000"/>
</svg>
