<svg width="600.000000" height="600.000000" viewBox="0 0 600 600" fill="none" xmlns="http://www.w3.org/2000/svg" xmlns:xlink="http://www.w3.org/1999/xlink">
	<desc>
			Created with Pixso.
	</desc>
	<defs>
		<clipPath id="clip8_110">
			<rect id="TT_2_ABC" width="600.000000" height="600.000000" fill="white" fill-opacity="0"/>
		</clipPath>
	</defs>
	<rect id="TT_2_ABC" width="600.000000" height="600.000000" fill="#FFFFFF" fill-opacity="0"/>
	<g clip-path="url(#clip8_110)">
		<path id="Vector" d="M137 186L137 180L189.5 180L189.5 186L137 186Z" fill="#000000" fill-opacity="1.000000" fill-rule="evenodd"/>
		<path id="Vector" d="M286 186L286 180L338.5 180L338.5 186L286 186Z" fill="#000000" fill-opacity="1.000000" fill-rule="evenodd"/>
		<path id="Vector" d="M437 186L437 180L489.5 180L489.5 186L437 186Z" fill="#000000" fill-opacity="1.000000" fill-rule="evenodd"/>
		<path id="Vector" d="M137 320L137 314L189.5 314L189.5 320L137 320Z" fill="#000000" fill-opacity="1.000000" fill-rule="evenodd"/>
		<path id="Vector" d="M286 320L286 314L338.5 314L338.5 320L286 320Z" fill="#000000" fill-opacity="1.000000" fill-rule="evenodd"/>
		<path id="Vector" d="M437 320L437 314L489.5 314L489.5 320L437 320Z" fill="#000000" fill-opacity="1.000000" fill-rule="evenodd"/>
		<path id="Vector" d="M137 286L137 280L189.5 280L189.5 286L137 286Z" fill="#000000" fill-opacity="1.000000" fill-rule="evenodd"/>
		<path id="Vector" d="M286 286L286 280L338.5 280L338.5 286L286 286Z" fill="#000000" fill-opacity="1.000000" fill-rule="evenodd"/>
		<path id="Vector" d="M437 286L437 280L489.5 280L489.5 286L437 286Z" fill="#000000" fill-opacity="1.000000" fill-rule="evenodd"/>
		<path id="Vector" d="M137 420L137 414L189.5 414L189.5 420L137 420Z" fill="#000000" fill-opacity="1.000000" fill-rule="evenodd"/>
		<path id="Vector" d="M286 420L286 414L338.5 414L338.5 420L286 420Z" fill="#000000" fill-opacity="1.000000" fill-rule="evenodd"/>
		<path id="Vector" d="M437 420L437 414L489.5 414L489.5 420L437 420Z" fill="#000000" fill-opacity="1.000000" fill-rule="evenodd"/>
		<path id="Vector" d="M136 236L136 230L139.75 230L139.75 236L136 236Z" fill="#000000" fill-opacity="1.000000" fill-rule="evenodd"/>
		<path id="Vector" d="M285 236L285 230L288.75 230L288.75 236L285 236Z" fill="#000000" fill-opacity="1.000000" fill-rule="evenodd"/>
		<path id="Vector" d="M436 236L436 230L439.75 230L439.75 236L436 236Z" fill="#000000" fill-opacity="1.000000" fill-rule="evenodd"/>
		<path id="Vector" d="M136 370L136 364L139.75 364L139.75 370L136 370Z" fill="#000000" fill-opacity="1.000000" fill-rule="evenodd"/>
		<path id="Vector" d="M285 370L285 364L288.75 364L288.75 370L285 370Z" fill="#000000" fill-opacity="1.000000" fill-rule="evenodd"/>
		<path id="Vector" d="M436 370L436 364L439.75 364L439.75 370L436 370Z" fill="#000000" fill-opacity="1.000000" fill-rule="evenodd"/>
		<mask id="mask_8_81" fill="white">
			<path id="Subtract" d="M137.161 180.006C123.215 180.323 112 192.736 112 208.003C112 223.27 123.215 235.683 137.161 236L137.161 229.998C126.529 229.674 118 219.951 118 208.003C118 196.055 126.529 186.332 137.161 186.008L137.161 180.006Z" clip-rule="evenodd" fill="" fill-opacity="1.000000" fill-rule="evenodd"/>
		</mask>
		<path id="Subtract" d="M137.161 180.006C123.215 180.323 112 192.736 112 208.003C112 223.27 123.215 235.683 137.161 236L137.161 229.998C126.529 229.674 118 219.951 118 208.003C118 196.055 126.529 186.332 137.161 186.008L137.161 180.006Z" clip-rule="evenodd" fill="#000000" fill-opacity="0.000000" fill-rule="evenodd" mask="url(#mask_8_81)"/>
		<path id="Subtract" d="M112 208.003C112 195.002 120.134 184.07 131.161 180.916C132.99 180.393 134.899 180.084 136.863 180.014C136.962 180.011 137.062 180.008 137.161 180.006L137.161 186.008Q137.106 186.01 137.051 186.011C132.442 186.18 128.233 188.116 124.951 191.231C124.184 191.958 123.468 192.75 122.809 193.599C119.813 197.459 118 202.495 118 208.003C118 213.511 119.813 218.547 122.809 222.407C123.468 223.255 124.184 224.047 124.951 224.775C128.233 227.89 132.442 229.826 137.051 229.994Q137.106 229.996 137.161 229.998L137.161 236C137.062 235.998 136.962 235.995 136.863 235.991C134.899 235.922 132.99 235.613 131.161 235.09C120.134 231.936 112 221.004 112 208.003Z" clip-rule="evenodd" fill="#000000" fill-opacity="1.000000" fill-rule="evenodd"/>
		<mask id="mask_8_119" fill="white">
			<path id="Subtract" d="M286.161 180.006C272.215 180.323 261 192.736 261 208.003C261 223.27 272.215 235.683 286.161 236L286.161 229.998C275.529 229.674 267 219.951 267 208.003C267 196.055 275.529 186.332 286.161 186.008L286.161 180.006Z" clip-rule="evenodd" fill="" fill-opacity="1.000000" fill-rule="evenodd"/>
		</mask>
		<path id="Subtract" d="M286.161 180.006C272.215 180.323 261 192.736 261 208.003C261 223.27 272.215 235.683 286.161 236L286.161 229.998C275.529 229.674 267 219.951 267 208.003C267 196.055 275.529 186.332 286.161 186.008L286.161 180.006Z" clip-rule="evenodd" fill="#000000" fill-opacity="0.000000" fill-rule="evenodd" mask="url(#mask_8_119)"/>
		<path id="Subtract" d="M261 208.003C261 195.002 269.134 184.07 280.161 180.916C281.99 180.393 283.899 180.084 285.863 180.014C285.962 180.011 286.062 180.008 286.161 180.006L286.161 186.008Q286.106 186.01 286.051 186.011C281.442 186.18 277.233 188.115 273.951 191.231C273.184 191.958 272.468 192.75 271.809 193.599C268.813 197.459 267 202.494 267 208.003C267 213.511 268.813 218.547 271.809 222.407C272.468 223.256 273.184 224.048 273.951 224.775C277.233 227.89 281.442 229.826 286.051 229.994Q286.106 229.996 286.161 229.998L286.161 236C286.062 235.998 285.962 235.995 285.863 235.991C283.899 235.922 281.99 235.613 280.161 235.09C269.134 231.936 261 221.004 261 208.003Z" clip-rule="evenodd" fill="#000000" fill-opacity="1.000000" fill-rule="evenodd"/>
		<mask id="mask_8_84" fill="white">
			<path id="Subtract" d="M437.161 180.006C423.215 180.323 412 192.736 412 208.003C412 223.27 423.215 235.683 437.161 236L437.161 229.998C426.529 229.674 418 219.951 418 208.003C418 196.055 426.529 186.332 437.161 186.008L437.161 180.006Z" clip-rule="evenodd" fill="" fill-opacity="1.000000" fill-rule="evenodd"/>
		</mask>
		<path id="Subtract" d="M437.161 180.006C423.215 180.323 412 192.736 412 208.003C412 223.27 423.215 235.683 437.161 236L437.161 229.998C426.529 229.674 418 219.951 418 208.003C418 196.055 426.529 186.332 437.161 186.008L437.161 180.006Z" clip-rule="evenodd" fill="#000000" fill-opacity="0.000000" fill-rule="evenodd" mask="url(#mask_8_84)"/>
		<path id="Subtract" d="M412 208.003C412 195.002 420.134 184.07 431.161 180.916C432.99 180.393 434.899 180.084 436.863 180.014C436.962 180.011 437.062 180.008 437.161 180.006L437.161 186.008Q437.106 186.01 437.051 186.011C432.442 186.18 428.233 188.115 424.951 191.231C424.184 191.958 423.468 192.75 422.809 193.599C419.813 197.459 418 202.494 418 208.003C418 213.511 419.813 218.547 422.809 222.407C423.468 223.256 424.184 224.048 424.951 224.775C428.233 227.89 432.442 229.826 437.051 229.994Q437.106 229.996 437.161 229.998L437.161 236C437.062 235.998 436.962 235.995 436.863 235.991C434.899 235.922 432.99 235.613 431.161 235.09C420.134 231.936 412 221.004 412 208.003Z" clip-rule="evenodd" fill="#000000" fill-opacity="1.000000" fill-rule="evenodd"/>
		<mask id="mask_8_87" fill="white">
			<path id="Subtract" d="M137.161 314.006C123.215 314.323 112 326.736 112 342.003C112 357.27 123.215 369.683 137.161 370L137.161 363.998C126.529 363.674 118 353.951 118 342.003C118 330.055 126.529 320.332 137.161 320.008L137.161 314.006Z" clip-rule="evenodd" fill="" fill-opacity="1.000000" fill-rule="evenodd"/>
		</mask>
		<path id="Subtract" d="M137.161 314.006C123.215 314.323 112 326.736 112 342.003C112 357.27 123.215 369.683 137.161 370L137.161 363.998C126.529 363.674 118 353.951 118 342.003C118 330.055 126.529 320.332 137.161 320.008L137.161 314.006Z" clip-rule="evenodd" fill="#000000" fill-opacity="0.000000" fill-rule="evenodd" mask="url(#mask_8_87)"/>
		<path id="Subtract" d="M112 342.003C112 329.002 120.134 318.07 131.161 314.916C132.99 314.393 134.899 314.084 136.863 314.014C136.962 314.011 137.062 314.008 137.161 314.006L137.161 320.008Q137.11 320.009 137.06 320.011C132.447 320.178 128.235 322.114 124.95 325.231C124.184 325.959 123.468 326.751 122.809 327.599C119.813 331.459 118 336.495 118 342.003C118 347.511 119.813 352.547 122.809 356.407C123.468 357.255 124.184 358.047 124.95 358.775C128.235 361.892 132.447 363.828 137.06 363.995Q137.11 363.996 137.161 363.998L137.161 370C137.062 369.998 136.962 369.995 136.863 369.991C134.899 369.922 132.99 369.613 131.161 369.09C120.134 365.936 112 355.004 112 342.003Z" clip-rule="evenodd" fill="#000000" fill-opacity="1.000000" fill-rule="evenodd"/>
		<mask id="mask_8_122" fill="white">
			<path id="Subtract" d="M286.161 314.006C272.215 314.323 261 326.736 261 342.003C261 357.27 272.215 369.683 286.161 370L286.161 363.998C275.529 363.674 267 353.951 267 342.003C267 330.055 275.529 320.332 286.161 320.008L286.161 314.006Z" clip-rule="evenodd" fill="" fill-opacity="1.000000" fill-rule="evenodd"/>
		</mask>
		<path id="Subtract" d="M286.161 314.006C272.215 314.323 261 326.736 261 342.003C261 357.27 272.215 369.683 286.161 370L286.161 363.998C275.529 363.674 267 353.951 267 342.003C267 330.055 275.529 320.332 286.161 320.008L286.161 314.006Z" clip-rule="evenodd" fill="#000000" fill-opacity="0.000000" fill-rule="evenodd" mask="url(#mask_8_122)"/>
		<path id="Subtract" d="M261 342.003C261 329.002 269.134 318.07 280.161 314.916C281.99 314.393 283.899 314.084 285.863 314.014C285.962 314.011 286.062 314.008 286.161 314.006L286.161 320.008Q286.11 320.009 286.06 320.011C281.447 320.178 277.235 322.114 273.951 325.231C273.184 325.959 272.468 326.75 271.809 327.599C268.813 331.459 267 336.494 267 342.003C267 347.511 268.813 352.547 271.809 356.407C272.468 357.255 273.184 358.047 273.951 358.775C277.235 361.892 281.447 363.828 286.06 363.995Q286.11 363.996 286.161 363.998L286.161 370C286.062 369.998 285.962 369.995 285.863 369.991C283.899 369.922 281.99 369.613 280.161 369.09C269.134 365.936 261 355.004 261 342.003Z" clip-rule="evenodd" fill="#000000" fill-opacity="1.000000" fill-rule="evenodd"/>
		<mask id="mask_8_90" fill="white">
			<path id="Subtract" d="M437.161 314.006C423.215 314.323 412 326.736 412 342.003C412 357.27 423.215 369.683 437.161 370L437.161 363.998C426.529 363.674 418 353.951 418 342.003C418 330.055 426.529 320.332 437.161 320.008L437.161 314.006Z" clip-rule="evenodd" fill="" fill-opacity="1.000000" fill-rule="evenodd"/>
		</mask>
		<path id="Subtract" d="M437.161 314.006C423.215 314.323 412 326.736 412 342.003C412 357.27 423.215 369.683 437.161 370L437.161 363.998C426.529 363.674 418 353.951 418 342.003C418 330.055 426.529 320.332 437.161 320.008L437.161 314.006Z" clip-rule="evenodd" fill="#000000" fill-opacity="0.000000" fill-rule="evenodd" mask="url(#mask_8_90)"/>
		<path id="Subtract" d="M412 342.003C412 329.002 420.134 318.07 431.161 314.916C432.99 314.393 434.899 314.084 436.863 314.014C436.962 314.011 437.062 314.008 437.161 314.006L437.161 320.008Q437.11 320.009 437.06 320.011C432.447 320.178 428.235 322.114 424.951 325.231C424.184 325.959 423.468 326.75 422.809 327.599C419.813 331.459 418 336.494 418 342.003C418 347.511 419.813 352.547 422.809 356.407C423.468 357.255 424.184 358.047 424.951 358.775C428.235 361.892 432.447 363.828 437.06 363.995Q437.11 363.996 437.161 363.998L437.161 370C437.062 369.998 436.962 369.995 436.863 369.991C434.899 369.922 432.99 369.613 431.161 369.09C420.134 365.936 412 355.004 412 342.003Z" clip-rule="evenodd" fill="#000000" fill-opacity="1.000000" fill-rule="evenodd"/>
		<mask id="mask_8_93" fill="white">
			<path id="Subtract" d="M137.161 230C123.215 230.317 112 242.729 112 257.994C112 273.259 123.215 285.671 137.161 285.988L137.161 279.986C126.529 279.662 118 269.94 118 257.994C118 246.048 126.529 236.326 137.161 236.002L137.161 230Z" clip-rule="evenodd" fill="" fill-opacity="1.000000" fill-rule="evenodd"/>
		</mask>
		<path id="Subtract" d="M137.161 230C123.215 230.317 112 242.729 112 257.994C112 273.259 123.215 285.671 137.161 285.988L137.161 279.986C126.529 279.662 118 269.94 118 257.994C118 246.048 126.529 236.326 137.161 236.002L137.161 230Z" clip-rule="evenodd" fill="#000000" fill-opacity="0.000000" fill-rule="evenodd" mask="url(#mask_8_93)"/>
		<path id="Subtract" d="M112 257.994C112 244.994 120.134 234.064 131.161 230.91C132.99 230.387 134.899 230.078 136.863 230.009C136.962 230.005 137.062 230.002 137.161 230L137.161 236.002Q137.106 236.004 137.052 236.006C132.445 236.174 128.238 238.107 124.957 241.219C124.186 241.95 123.465 242.746 122.803 243.6C119.811 247.458 118 252.49 118 257.994C118 263.51 119.818 268.551 122.822 272.413C123.472 273.248 124.178 274.029 124.933 274.747C128.244 277.896 132.5 279.844 137.161 279.986L137.161 285.988C137.057 285.985 136.953 285.982 136.849 285.979C134.89 285.909 132.986 285.6 131.161 285.078C120.134 281.924 112 270.994 112 257.994Z" clip-rule="evenodd" fill="#000000" fill-opacity="1.000000" fill-rule="evenodd"/>
		<mask id="mask_8_125" fill="white">
			<path id="Subtract" d="M286.161 230C272.215 230.317 261 242.729 261 257.994C261 273.259 272.215 285.671 286.161 285.988L286.161 279.986C275.529 279.662 267 269.94 267 257.994C267 246.048 275.529 236.326 286.161 236.002L286.161 230Z" clip-rule="evenodd" fill="" fill-opacity="1.000000" fill-rule="evenodd"/>
		</mask>
		<path id="Subtract" d="M286.161 230C272.215 230.317 261 242.729 261 257.994C261 273.259 272.215 285.671 286.161 285.988L286.161 279.986C275.529 279.662 267 269.94 267 257.994C267 246.048 275.529 236.326 286.161 236.002L286.161 230Z" clip-rule="evenodd" fill="#000000" fill-opacity="0.000000" fill-rule="evenodd" mask="url(#mask_8_125)"/>
		<path id="Subtract" d="M261 257.994C261 244.994 269.134 234.064 280.161 230.91C281.99 230.387 283.899 230.078 285.863 230.009C285.962 230.005 286.062 230.002 286.161 230L286.161 236.002Q286.106 236.004 286.052 236.006C281.445 236.174 277.238 238.107 273.957 241.219C273.185 241.95 272.465 242.746 271.803 243.6C268.811 247.458 267 252.49 267 257.994C267 263.51 268.818 268.551 271.822 272.413C272.472 273.248 273.178 274.029 273.933 274.746C277.244 277.896 281.5 279.844 286.161 279.986L286.161 285.988C286.057 285.985 285.953 285.982 285.849 285.979C283.89 285.909 281.986 285.6 280.161 285.078C269.134 281.924 261 270.994 261 257.994Z" clip-rule="evenodd" fill="#000000" fill-opacity="1.000000" fill-rule="evenodd"/>
		<mask id="mask_8_96" fill="white">
			<path id="Subtract" d="M437.161 230C423.215 230.317 412 242.729 412 257.994C412 273.259 423.215 285.671 437.161 285.988L437.161 279.986C426.529 279.662 418 269.94 418 257.994C418 246.048 426.529 236.326 437.161 236.002L437.161 230Z" clip-rule="evenodd" fill="" fill-opacity="1.000000" fill-rule="evenodd"/>
		</mask>
		<path id="Subtract" d="M437.161 230C423.215 230.317 412 242.729 412 257.994C412 273.259 423.215 285.671 437.161 285.988L437.161 279.986C426.529 279.662 418 269.94 418 257.994C418 246.048 426.529 236.326 437.161 236.002L437.161 230Z" clip-rule="evenodd" fill="#000000" fill-opacity="0.000000" fill-rule="evenodd" mask="url(#mask_8_96)"/>
		<path id="Subtract" d="M412 257.994C412 244.994 420.134 234.064 431.161 230.91C432.99 230.387 434.899 230.078 436.863 230.009C436.962 230.005 437.062 230.002 437.161 230L437.161 236.002Q437.106 236.004 437.052 236.006C432.445 236.174 428.238 238.107 424.957 241.219C424.185 241.95 423.465 242.746 422.803 243.6C419.811 247.458 418 252.49 418 257.994C418 263.51 419.818 268.551 422.822 272.413C423.472 273.248 424.178 274.029 424.933 274.746C428.244 277.896 432.5 279.844 437.161 279.986L437.161 285.988C437.057 285.985 436.953 285.982 436.849 285.979C434.89 285.909 432.986 285.6 431.161 285.078C420.134 281.924 412 270.994 412 257.994Z" clip-rule="evenodd" fill="#000000" fill-opacity="1.000000" fill-rule="evenodd"/>
		<mask id="mask_8_99" fill="white">
			<path id="Subtract" d="M137.161 364C123.215 364.317 112 376.729 112 391.994C112 407.259 123.215 419.671 137.161 419.988L137.161 413.986C126.529 413.662 118 403.94 118 391.994C118 380.048 126.529 370.326 137.161 370.002L137.161 364Z" clip-rule="evenodd" fill="" fill-opacity="1.000000" fill-rule="evenodd"/>
		</mask>
		<path id="Subtract" d="M137.161 364C123.215 364.317 112 376.729 112 391.994C112 407.259 123.215 419.671 137.161 419.988L137.161 413.986C126.529 413.662 118 403.94 118 391.994C118 380.048 126.529 370.326 137.161 370.002L137.161 364Z" clip-rule="evenodd" fill="#000000" fill-opacity="0.000000" fill-rule="evenodd" mask="url(#mask_8_99)"/>
		<path id="Subtract" d="M112 391.994C112 378.994 120.134 368.064 131.161 364.91C132.99 364.387 134.899 364.078 136.863 364.009C136.962 364.005 137.062 364.002 137.161 364L137.161 370.002Q137.106 370.004 137.052 370.006C132.445 370.174 128.238 372.107 124.957 375.219C124.185 375.95 123.465 376.746 122.803 377.6C119.811 381.458 118 386.49 118 391.994C118 397.51 119.818 402.551 122.822 406.413C123.472 407.248 124.178 408.029 124.933 408.747C128.244 411.896 132.5 413.844 137.161 413.986L137.161 419.988C137.057 419.985 136.953 419.982 136.849 419.979C134.89 419.909 132.986 419.6 131.161 419.078C120.134 415.924 112 404.994 112 391.994Z" clip-rule="evenodd" fill="#000000" fill-opacity="1.000000" fill-rule="evenodd"/>
		<mask id="mask_8_128" fill="white">
			<path id="Subtract" d="M286.161 364C272.215 364.317 261 376.729 261 391.994C261 407.259 272.215 419.671 286.161 419.988L286.161 413.986C275.529 413.662 267 403.94 267 391.994C267 380.048 275.529 370.326 286.161 370.002L286.161 364Z" clip-rule="evenodd" fill="" fill-opacity="1.000000" fill-rule="evenodd"/>
		</mask>
		<path id="Subtract" d="M286.161 364C272.215 364.317 261 376.729 261 391.994C261 407.259 272.215 419.671 286.161 419.988L286.161 413.986C275.529 413.662 267 403.94 267 391.994C267 380.048 275.529 370.326 286.161 370.002L286.161 364Z" clip-rule="evenodd" fill="#000000" fill-opacity="0.000000" fill-rule="evenodd" mask="url(#mask_8_128)"/>
		<path id="Subtract" d="M261 391.994C261 378.994 269.134 368.064 280.161 364.91C281.99 364.387 283.899 364.078 285.863 364.009C285.962 364.005 286.062 364.002 286.161 364L286.161 370.002Q286.106 370.004 286.052 370.006C281.445 370.174 277.238 372.107 273.957 375.219C273.185 375.95 272.465 376.746 271.803 377.6C268.811 381.458 267 386.49 267 391.994C267 397.51 268.818 402.551 271.822 406.413C272.472 407.248 273.178 408.029 273.933 408.746C277.244 411.896 281.5 413.844 286.161 413.986L286.161 419.988C286.057 419.985 285.953 419.982 285.849 419.979C283.89 419.909 281.986 419.6 280.161 419.078C269.134 415.924 261 404.994 261 391.994Z" clip-rule="evenodd" fill="#000000" fill-opacity="1.000000" fill-rule="evenodd"/>
		<mask id="mask_8_102" fill="white">
			<path id="Subtract" d="M437.161 364C423.215 364.317 412 376.729 412 391.994C412 407.259 423.215 419.671 437.161 419.988L437.161 413.986C426.529 413.662 418 403.94 418 391.994C418 380.048 426.529 370.326 437.161 370.002L437.161 364Z" clip-rule="evenodd" fill="" fill-opacity="1.000000" fill-rule="evenodd"/>
		</mask>
		<path id="Subtract" d="M437.161 364C423.215 364.317 412 376.729 412 391.994C412 407.259 423.215 419.671 437.161 419.988L437.161 413.986C426.529 413.662 418 403.94 418 391.994C418 380.048 426.529 370.326 437.161 370.002L437.161 364Z" clip-rule="evenodd" fill="#000000" fill-opacity="0.000000" fill-rule="evenodd" mask="url(#mask_8_102)"/>
		<path id="Subtract" d="M412 391.994C412 378.994 420.134 368.064 431.161 364.91C432.99 364.387 434.899 364.078 436.863 364.009C436.962 364.005 437.062 364.002 437.161 364L437.161 370.002Q437.106 370.004 437.052 370.006C432.445 370.174 428.238 372.107 424.957 375.219C424.185 375.95 423.465 376.746 422.803 377.6C419.811 381.458 418 386.49 418 391.994C418 397.51 419.818 402.551 422.822 406.413C423.472 407.248 424.178 408.029 424.933 408.746C428.244 411.896 432.5 413.844 437.161 413.986L437.161 419.988C437.057 419.985 436.953 419.982 436.849 419.979C434.89 419.909 432.986 419.6 431.161 419.078C420.134 415.924 412 404.994 412 391.994Z" clip-rule="evenodd" fill="#000000" fill-opacity="1.000000" fill-rule="evenodd"/>
		<path id="Vector 1" d="M151 -1L151 600" stroke="#000000" stroke-opacity="1.000000" stroke-width="6.000000"/>
		<path id="Vector 57" d="M451 -1L451 600" stroke="#000000" stroke-opacity="1.000000" stroke-width="6.000000"/>
		<path id="Vector 2" d="M300 0L300 601" stroke="#000000" stroke-opacity="1.000000" stroke-width="6.000000"/>
		<circle id="Ellipse 6" cx="151.000000" cy="120.000000" r="17.000000" stroke="#000000" stroke-opacity="1.000000" stroke-width="6.000000"/>
		<circle id="Ellipse 38" cx="300.000000" cy="120.000000" r="17.000000" stroke="#000000" stroke-opacity="1.000000" stroke-width="6.000000"/>
		<circle id="Ellipse 36" cx="451.000000" cy="120.000000" r="17.000000" stroke="#000000" stroke-opacity="1.000000" stroke-width="6.000000"/>
		<circle id="Ellipse 7" cx="151.000000" cy="480.000000" r="17.000000" stroke="#000000" stroke-opacity="1.000000" stroke-width="6.000000"/>
		<circle id="Ellipse 39" cx="300.000000" cy="480.000000" r="17.000000" stroke="#000000" stroke-opacity="1.000000" stroke-width="6.000000"/>
		<circle id="Ellipse 37" cx="451.000000" cy="480.000000" r="17.000000" stroke="#000000" stroke-opacity="1.000000" stroke-width="6.000000"/>
	</g>
</svg>
