<svg width="600.000000" height="600.000000" viewBox="0 0 600 600" fill="none" xmlns="http://www.w3.org/2000/svg" xmlns:xlink="http://www.w3.org/1999/xlink">
	<desc>
			Created with Pixso.
	</desc>
	<defs>
		<clipPath id="clip8_621">
			<rect id="TT_4_ABC" width="600.000000" height="600.000000" fill="white" fill-opacity="0"/>
		</clipPath>
	</defs>
	<rect id="TT_4_ABC" width="600.000000" height="600.000000" fill="#FFFFFF" fill-opacity="0"/>
	<g clip-path="url(#clip8_621)">
		<path id="Vector" d="M137 194L137 188L189.5 188L189.5 194L137 194Z" fill="#000000" fill-opacity="1.000000" fill-rule="evenodd"/>
		<path id="Vector" d="M286 194L286 188L338.5 188L338.5 194L286 194Z" fill="#000000" fill-opacity="1.000000" fill-rule="evenodd"/>
		<path id="Vector" d="M437 194L437 188L489.5 188L489.5 194L437 194Z" fill="#000000" fill-opacity="1.000000" fill-rule="evenodd"/>
		<path id="Vector" d="M140 76L140 70L192.5 70L192.5 76L140 76Z" fill="#000000" fill-opacity="1.000000" fill-rule="evenodd"/>
		<path id="Vector" d="M289 76L289 70L341.5 70L341.5 76L289 76Z" fill="#000000" fill-opacity="1.000000" fill-rule="evenodd"/>
		<path id="Vector" d="M440 76L440 70L492.5 70L492.5 76L440 76Z" fill="#000000" fill-opacity="1.000000" fill-rule="evenodd"/>
		<path id="Vector" d="M137 312L137 306L189.5 306L189.5 312L137 312Z" fill="#000000" fill-opacity="1.000000" fill-rule="evenodd"/>
		<path id="Vector" d="M286 312L286 306L338.5 306L338.5 312L286 312Z" fill="#000000" fill-opacity="1.000000" fill-rule="evenodd"/>
		<path id="Vector" d="M437 312L437 306L489.5 306L489.5 312L437 312Z" fill="#000000" fill-opacity="1.000000" fill-rule="evenodd"/>
		<path id="Vector" d="M137 430L137 424L189.5 424L189.5 430L137 430Z" fill="#000000" fill-opacity="1.000000" fill-rule="evenodd"/>
		<path id="Vector" d="M286 430L286 424L338.5 424L338.5 430L286 430Z" fill="#000000" fill-opacity="1.000000" fill-rule="evenodd"/>
		<path id="Vector" d="M437 430L437 424L489.5 424L489.5 430L437 430Z" fill="#000000" fill-opacity="1.000000" fill-rule="evenodd"/>
		<path id="Vector" d="M137 294L137 288L189.5 288L189.5 294L137 294Z" fill="#000000" fill-opacity="1.000000" fill-rule="evenodd"/>
		<path id="Vector" d="M286 294L286 288L338.5 288L338.5 294L286 294Z" fill="#000000" fill-opacity="1.000000" fill-rule="evenodd"/>
		<path id="Vector" d="M437 294L437 288L489.5 288L489.5 294L437 294Z" fill="#000000" fill-opacity="1.000000" fill-rule="evenodd"/>
		<path id="Vector" d="M140 176L140 170L192.5 170L192.5 176L140 176Z" fill="#000000" fill-opacity="1.000000" fill-rule="evenodd"/>
		<path id="Vector" d="M289 176L289 170L341.5 170L341.5 176L289 176Z" fill="#000000" fill-opacity="1.000000" fill-rule="evenodd"/>
		<path id="Vector" d="M440 176L440 170L492.5 170L492.5 176L440 176Z" fill="#000000" fill-opacity="1.000000" fill-rule="evenodd"/>
		<path id="Vector" d="M137 412L137 406L189.5 406L189.5 412L137 412Z" fill="#000000" fill-opacity="1.000000" fill-rule="evenodd"/>
		<path id="Vector" d="M286 412L286 406L338.5 406L338.5 412L286 412Z" fill="#000000" fill-opacity="1.000000" fill-rule="evenodd"/>
		<path id="Vector" d="M437 412L437 406L489.5 406L489.5 412L437 412Z" fill="#000000" fill-opacity="1.000000" fill-rule="evenodd"/>
		<path id="Vector" d="M137 530L137 524L189.5 524L189.5 530L137 530Z" fill="#000000" fill-opacity="1.000000" fill-rule="evenodd"/>
		<path id="Vector" d="M286 530L286 524L338.5 524L338.5 530L286 530Z" fill="#000000" fill-opacity="1.000000" fill-rule="evenodd"/>
		<path id="Vector" d="M437 530L437 524L489.5 524L489.5 530L437 530Z" fill="#000000" fill-opacity="1.000000" fill-rule="evenodd"/>
		<path id="Vector" d="M136 244L136 238L139.75 238L139.75 244L136 244Z" fill="#000000" fill-opacity="1.000000" fill-rule="evenodd"/>
		<path id="Vector" d="M285 244L285 238L288.75 238L288.75 244L285 244Z" fill="#000000" fill-opacity="1.000000" fill-rule="evenodd"/>
		<path id="Vector" d="M436 244L436 238L439.75 238L439.75 244L436 244Z" fill="#000000" fill-opacity="1.000000" fill-rule="evenodd"/>
		<path id="Vector" d="M139 126L139 120L142.75 120L142.75 126L139 126Z" fill="#000000" fill-opacity="1.000000" fill-rule="evenodd"/>
		<path id="Vector" d="M288 126L288 120L291.75 120L291.75 126L288 126Z" fill="#000000" fill-opacity="1.000000" fill-rule="evenodd"/>
		<path id="Vector" d="M439 126L439 120L442.75 120L442.75 126L439 126Z" fill="#000000" fill-opacity="1.000000" fill-rule="evenodd"/>
		<path id="Vector" d="M136 362L136 356L139.75 356L139.75 362L136 362Z" fill="#000000" fill-opacity="1.000000" fill-rule="evenodd"/>
		<path id="Vector" d="M285 362L285 356L288.75 356L288.75 362L285 362Z" fill="#000000" fill-opacity="1.000000" fill-rule="evenodd"/>
		<path id="Vector" d="M436 362L436 356L439.75 356L439.75 362L436 362Z" fill="#000000" fill-opacity="1.000000" fill-rule="evenodd"/>
		<path id="Vector" d="M136 480L136 474L139.75 474L139.75 480L136 480Z" fill="#000000" fill-opacity="1.000000" fill-rule="evenodd"/>
		<path id="Vector" d="M285 480L285 474L288.75 474L288.75 480L285 480Z" fill="#000000" fill-opacity="1.000000" fill-rule="evenodd"/>
		<path id="Vector" d="M436 480L436 474L439.75 474L439.75 480L436 480Z" fill="#000000" fill-opacity="1.000000" fill-rule="evenodd"/>
		<mask id="mask_8_568" fill="white">
			<path id="Subtract" d="M137.161 188.006C123.215 188.323 112 200.736 112 216.003C112 231.27 123.215 243.683 137.161 244L137.161 237.998C126.529 237.674 118 227.951 118 216.003C118 204.055 126.529 194.332 137.161 194.008L137.161 188.006Z" clip-rule="evenodd" fill="" fill-opacity="1.000000" fill-rule="evenodd"/>
		</mask>
		<path id="Subtract" d="M137.161 188.006C123.215 188.323 112 200.736 112 216.003C112 231.27 123.215 243.683 137.161 244L137.161 237.998C126.529 237.674 118 227.951 118 216.003C118 204.055 126.529 194.332 137.161 194.008L137.161 188.006Z" clip-rule="evenodd" fill="#000000" fill-opacity="0.000000" fill-rule="evenodd" mask="url(#mask_8_568)"/>
		<path id="Subtract" d="M112 216.003C112 203.002 120.134 192.07 131.161 188.916C132.99 188.393 134.899 188.084 136.863 188.014C136.962 188.011 137.062 188.008 137.161 188.006L137.161 194.008Q137.107 194.01 137.051 194.011C132.44 194.18 128.229 196.118 124.945 199.236C124.182 199.961 123.47 200.749 122.814 201.593C119.815 205.454 118 210.492 118 216.003C118 221.514 119.815 226.552 122.814 230.413C123.47 231.257 124.182 232.045 124.945 232.769C128.228 235.888 132.439 237.826 137.051 237.994Q137.107 237.996 137.161 237.998L137.161 244C137.062 243.998 136.962 243.995 136.863 243.991C134.899 243.922 132.99 243.613 131.161 243.09C120.134 239.936 112 229.004 112 216.003Z" clip-rule="evenodd" fill="#000000" fill-opacity="1.000000" fill-rule="evenodd"/>
		<mask id="mask_8_636" fill="white">
			<path id="Subtract" d="M286.161 188.006C272.215 188.323 261 200.736 261 216.003C261 231.27 272.215 243.683 286.161 244L286.161 237.998C275.529 237.674 267 227.951 267 216.003C267 204.055 275.529 194.332 286.161 194.008L286.161 188.006Z" clip-rule="evenodd" fill="" fill-opacity="1.000000" fill-rule="evenodd"/>
		</mask>
		<path id="Subtract" d="M286.161 188.006C272.215 188.323 261 200.736 261 216.003C261 231.27 272.215 243.683 286.161 244L286.161 237.998C275.529 237.674 267 227.951 267 216.003C267 204.055 275.529 194.332 286.161 194.008L286.161 188.006Z" clip-rule="evenodd" fill="#000000" fill-opacity="0.000000" fill-rule="evenodd" mask="url(#mask_8_636)"/>
		<path id="Subtract" d="M261 216.003C261 203.002 269.134 192.07 280.161 188.916C281.99 188.393 283.899 188.084 285.863 188.014C285.962 188.011 286.062 188.008 286.161 188.006L286.161 194.008Q286.107 194.01 286.051 194.011C281.44 194.18 277.229 196.117 273.946 199.236C273.183 199.96 272.47 200.749 271.813 201.594C268.815 205.454 267 210.492 267 216.003C267 221.514 268.815 226.552 271.813 230.412C272.47 231.257 273.183 232.045 273.946 232.77C277.229 235.888 281.44 237.826 286.051 237.994Q286.107 237.996 286.161 237.998L286.161 244C286.062 243.998 285.962 243.995 285.863 243.991C283.899 243.922 281.99 243.613 280.161 243.09C269.134 239.936 261 229.004 261 216.003Z" clip-rule="evenodd" fill="#000000" fill-opacity="1.000000" fill-rule="evenodd"/>
		<mask id="mask_8_571" fill="white">
			<path id="Subtract" d="M437.161 188.006C423.215 188.323 412 200.736 412 216.003C412 231.27 423.215 243.683 437.161 244L437.161 237.998C426.529 237.674 418 227.951 418 216.003C418 204.055 426.529 194.332 437.161 194.008L437.161 188.006Z" clip-rule="evenodd" fill="" fill-opacity="1.000000" fill-rule="evenodd"/>
		</mask>
		<path id="Subtract" d="M437.161 188.006C423.215 188.323 412 200.736 412 216.003C412 231.27 423.215 243.683 437.161 244L437.161 237.998C426.529 237.674 418 227.951 418 216.003C418 204.055 426.529 194.332 437.161 194.008L437.161 188.006Z" clip-rule="evenodd" fill="#000000" fill-opacity="0.000000" fill-rule="evenodd" mask="url(#mask_8_571)"/>
		<path id="Subtract" d="M412 216.003C412 203.002 420.134 192.07 431.161 188.916C432.99 188.393 434.899 188.084 436.863 188.014C436.962 188.011 437.062 188.008 437.161 188.006L437.161 194.008Q437.107 194.01 437.051 194.011C432.44 194.18 428.228 196.118 424.945 199.236C424.182 199.961 423.47 200.749 422.814 201.593C419.815 205.453 418 210.492 418 216.003C418 221.514 419.815 226.552 422.814 230.413C423.47 231.257 424.182 232.045 424.945 232.769C428.228 235.888 432.44 237.826 437.051 237.994Q437.107 237.996 437.161 237.998L437.161 244C437.062 243.998 436.962 243.995 436.863 243.991C434.899 243.922 432.99 243.613 431.161 243.09C420.134 239.936 412 229.004 412 216.003Z" clip-rule="evenodd" fill="#000000" fill-opacity="1.000000" fill-rule="evenodd"/>
		<mask id="mask_8_574" fill="white">
			<path id="Subtract" d="M140.161 70.0059C126.215 70.3232 115 82.7363 115 98.0029C115 113.27 126.215 125.683 140.161 126L140.161 119.998C129.529 119.674 121 109.951 121 98.0029C121 86.0552 129.529 76.3315 140.161 76.0078L140.161 70.0059Z" clip-rule="evenodd" fill="" fill-opacity="1.000000" fill-rule="evenodd"/>
		</mask>
		<path id="Subtract" d="M140.161 70.0059C126.215 70.3232 115 82.7363 115 98.0029C115 113.27 126.215 125.683 140.161 126L140.161 119.998C129.529 119.674 121 109.951 121 98.0029C121 86.0552 129.529 76.3315 140.161 76.0078L140.161 70.0059Z" clip-rule="evenodd" fill="#000000" fill-opacity="0.000000" fill-rule="evenodd" mask="url(#mask_8_574)"/>
		<path id="Subtract" d="M115 98.0029C115 85.0017 123.134 74.07 134.161 70.916C135.99 70.3928 137.899 70.0836 139.863 70.0145C139.962 70.011 140.062 70.0081 140.161 70.0059L140.161 76.0078Q140.107 76.0096 140.051 76.0115C135.44 76.1801 131.229 78.1178 127.945 81.2363C127.182 81.9606 126.47 82.7487 125.814 83.5932C122.815 87.4536 121 92.4916 121 98.0029C121 103.514 122.815 108.552 125.814 112.413C126.47 113.257 127.182 114.045 127.945 114.769C131.228 117.888 135.439 119.826 140.051 119.994Q140.107 119.996 140.161 119.998L140.161 126C140.062 125.998 139.962 125.995 139.863 125.991C137.899 125.922 135.99 125.613 134.161 125.09C123.134 121.936 115 111.004 115 98.0029Z" clip-rule="evenodd" fill="#000000" fill-opacity="1.000000" fill-rule="evenodd"/>
		<mask id="mask_8_639" fill="white">
			<path id="Subtract" d="M289.161 70.0059C275.215 70.3232 264 82.7363 264 98.0029C264 113.27 275.215 125.683 289.161 126L289.161 119.998C278.529 119.674 270 109.951 270 98.0029C270 86.0552 278.529 76.3315 289.161 76.0078L289.161 70.0059Z" clip-rule="evenodd" fill="" fill-opacity="1.000000" fill-rule="evenodd"/>
		</mask>
		<path id="Subtract" d="M289.161 70.0059C275.215 70.3232 264 82.7363 264 98.0029C264 113.27 275.215 125.683 289.161 126L289.161 119.998C278.529 119.674 270 109.951 270 98.0029C270 86.0552 278.529 76.3315 289.161 76.0078L289.161 70.0059Z" clip-rule="evenodd" fill="#000000" fill-opacity="0.000000" fill-rule="evenodd" mask="url(#mask_8_639)"/>
		<path id="Subtract" d="M264 98.0029C264 85.0017 272.134 74.07 283.161 70.916C284.99 70.3928 286.899 70.0836 288.863 70.0145C288.962 70.011 289.062 70.0081 289.161 70.0059L289.161 76.0078Q289.106 76.0096 289.051 76.0115C284.44 76.1801 280.229 78.1177 276.945 81.2363C276.182 81.9606 275.47 82.7487 274.814 83.5931C271.815 87.4536 270 92.4916 270 98.0029C270 103.514 271.815 108.552 274.814 112.413C275.47 113.257 276.182 114.045 276.945 114.77C280.229 117.888 284.44 119.826 289.051 119.994Q289.106 119.996 289.161 119.998L289.161 126C289.062 125.998 288.962 125.995 288.863 125.991C286.899 125.922 284.99 125.613 283.161 125.09C272.134 121.936 264 111.004 264 98.0029Z" clip-rule="evenodd" fill="#000000" fill-opacity="1.000000" fill-rule="evenodd"/>
		<mask id="mask_8_577" fill="white">
			<path id="Subtract" d="M440.161 70.0059C426.215 70.3232 415 82.7363 415 98.0029C415 113.27 426.215 125.683 440.161 126L440.161 119.998C429.529 119.674 421 109.951 421 98.0029C421 86.0552 429.529 76.3315 440.161 76.0078L440.161 70.0059Z" clip-rule="evenodd" fill="" fill-opacity="1.000000" fill-rule="evenodd"/>
		</mask>
		<path id="Subtract" d="M440.161 70.0059C426.215 70.3232 415 82.7363 415 98.0029C415 113.27 426.215 125.683 440.161 126L440.161 119.998C429.529 119.674 421 109.951 421 98.0029C421 86.0552 429.529 76.3315 440.161 76.0078L440.161 70.0059Z" clip-rule="evenodd" fill="#000000" fill-opacity="0.000000" fill-rule="evenodd" mask="url(#mask_8_577)"/>
		<path id="Subtract" d="M415 98.0029C415 85.0017 423.134 74.07 434.161 70.916C435.99 70.3928 437.899 70.0836 439.863 70.0145C439.962 70.011 440.062 70.0081 440.161 70.0059L440.161 76.0078Q440.106 76.0096 440.051 76.0115C435.44 76.1801 431.229 78.1177 427.945 81.2363C427.182 81.9606 426.47 82.7487 425.814 83.5931C422.815 87.4536 421 92.4916 421 98.0029C421 103.514 422.815 108.552 425.814 112.413C426.47 113.257 427.182 114.045 427.945 114.77C431.229 117.888 435.44 119.826 440.051 119.994Q440.106 119.996 440.161 119.998L440.161 126C440.062 125.998 439.962 125.995 439.863 125.991C437.899 125.922 435.99 125.613 434.161 125.09C423.134 121.936 415 111.004 415 98.0029Z" clip-rule="evenodd" fill="#000000" fill-opacity="1.000000" fill-rule="evenodd"/>
		<mask id="mask_8_580" fill="white">
			<path id="Subtract" d="M137.161 306.006C123.215 306.323 112 318.736 112 334.003C112 349.27 123.215 361.683 137.161 362L137.161 355.998C126.529 355.674 118 345.951 118 334.003C118 322.055 126.529 312.332 137.161 312.008L137.161 306.006Z" clip-rule="evenodd" fill="" fill-opacity="1.000000" fill-rule="evenodd"/>
		</mask>
		<path id="Subtract" d="M137.161 306.006C123.215 306.323 112 318.736 112 334.003C112 349.27 123.215 361.683 137.161 362L137.161 355.998C126.529 355.674 118 345.951 118 334.003C118 322.055 126.529 312.332 137.161 312.008L137.161 306.006Z" clip-rule="evenodd" fill="#000000" fill-opacity="0.000000" fill-rule="evenodd" mask="url(#mask_8_580)"/>
		<path id="Subtract" d="M112 334.003C112 321.002 120.134 310.07 131.161 306.916C132.99 306.393 134.899 306.084 136.863 306.014C136.962 306.011 137.062 306.008 137.161 306.006L137.161 312.008Q137.11 312.009 137.06 312.011C132.444 312.178 128.23 314.116 124.945 317.237C124.182 317.961 123.47 318.749 122.814 319.593C119.815 323.453 118 328.491 118 334.003C118 339.514 119.815 344.553 122.814 348.413C123.47 349.257 124.183 350.045 124.945 350.77C128.231 353.89 132.445 355.828 137.06 355.995Q137.11 355.996 137.161 355.998L137.161 362C137.062 361.998 136.962 361.995 136.863 361.991C134.899 361.922 132.99 361.613 131.161 361.09C120.134 357.936 112 347.004 112 334.003Z" clip-rule="evenodd" fill="#000000" fill-opacity="1.000000" fill-rule="evenodd"/>
		<mask id="mask_8_642" fill="white">
			<path id="Subtract" d="M286.161 306.006C272.215 306.323 261 318.736 261 334.003C261 349.27 272.215 361.683 286.161 362L286.161 355.998C275.529 355.674 267 345.951 267 334.003C267 322.055 275.529 312.332 286.161 312.008L286.161 306.006Z" clip-rule="evenodd" fill="" fill-opacity="1.000000" fill-rule="evenodd"/>
		</mask>
		<path id="Subtract" d="M286.161 306.006C272.215 306.323 261 318.736 261 334.003C261 349.27 272.215 361.683 286.161 362L286.161 355.998C275.529 355.674 267 345.951 267 334.003C267 322.055 275.529 312.332 286.161 312.008L286.161 306.006Z" clip-rule="evenodd" fill="#000000" fill-opacity="0.000000" fill-rule="evenodd" mask="url(#mask_8_642)"/>
		<path id="Subtract" d="M261 334.003C261 321.002 269.134 310.07 280.161 306.916C281.99 306.393 283.899 306.084 285.863 306.014C285.962 306.011 286.062 306.008 286.161 306.006L286.161 312.008Q286.11 312.009 286.06 312.011C281.445 312.178 277.231 314.116 273.946 317.235C273.183 317.96 272.47 318.749 271.813 319.594C268.815 323.454 267 328.492 267 334.003C267 339.514 268.815 344.551 271.813 348.412C272.47 349.257 273.183 350.046 273.946 350.77C277.231 353.89 281.445 355.828 286.06 355.995Q286.11 355.996 286.161 355.998L286.161 362C286.062 361.998 285.962 361.995 285.863 361.991C283.899 361.922 281.99 361.613 280.161 361.09C269.134 357.936 261 347.004 261 334.003Z" clip-rule="evenodd" fill="#000000" fill-opacity="1.000000" fill-rule="evenodd"/>
		<mask id="mask_8_583" fill="white">
			<path id="Subtract" d="M437.161 306.006C423.215 306.323 412 318.736 412 334.003C412 349.27 423.215 361.683 437.161 362L437.161 355.998C426.529 355.674 418 345.951 418 334.003C418 322.055 426.529 312.332 437.161 312.008L437.161 306.006Z" clip-rule="evenodd" fill="" fill-opacity="1.000000" fill-rule="evenodd"/>
		</mask>
		<path id="Subtract" d="M437.161 306.006C423.215 306.323 412 318.736 412 334.003C412 349.27 423.215 361.683 437.161 362L437.161 355.998C426.529 355.674 418 345.951 418 334.003C418 322.055 426.529 312.332 437.161 312.008L437.161 306.006Z" clip-rule="evenodd" fill="#000000" fill-opacity="0.000000" fill-rule="evenodd" mask="url(#mask_8_583)"/>
		<path id="Subtract" d="M412 334.003C412 321.002 420.134 310.07 431.161 306.916C432.99 306.393 434.899 306.084 436.863 306.014C436.962 306.011 437.062 306.008 437.161 306.006L437.161 312.008Q437.11 312.009 437.06 312.011C432.445 312.178 428.231 314.116 424.945 317.236C424.182 317.961 423.47 318.749 422.814 319.593C419.815 323.454 418 328.492 418 334.003C418 339.514 419.815 344.552 422.814 348.413C423.47 349.257 424.182 350.045 424.945 350.77C428.231 353.89 432.445 355.828 437.06 355.995Q437.11 355.996 437.161 355.998L437.161 362C437.062 361.998 436.962 361.995 436.863 361.991C434.899 361.922 432.99 361.613 431.161 361.09C420.134 357.936 412 347.004 412 334.003Z" clip-rule="evenodd" fill="#000000" fill-opacity="1.000000" fill-rule="evenodd"/>
		<mask id="mask_8_586" fill="white">
			<path id="Subtract" d="M137.161 424.006C123.215 424.323 112 436.736 112 452.003C112 467.27 123.215 479.683 137.161 480L137.161 473.998C126.529 473.674 118 463.951 118 452.003C118 440.055 126.529 430.332 137.161 430.008L137.161 424.006Z" clip-rule="evenodd" fill="" fill-opacity="1.000000" fill-rule="evenodd"/>
		</mask>
		<path id="Subtract" d="M137.161 424.006C123.215 424.323 112 436.736 112 452.003C112 467.27 123.215 479.683 137.161 480L137.161 473.998C126.529 473.674 118 463.951 118 452.003C118 440.055 126.529 430.332 137.161 430.008L137.161 424.006Z" clip-rule="evenodd" fill="#000000" fill-opacity="0.000000" fill-rule="evenodd" mask="url(#mask_8_586)"/>
		<path id="Subtract" d="M112 452.003C112 439.002 120.134 428.07 131.161 424.916C132.99 424.393 134.899 424.084 136.863 424.014C136.962 424.011 137.062 424.008 137.161 424.006L137.161 430.008Q137.11 430.009 137.06 430.011C132.444 430.178 128.23 432.116 124.945 435.237C124.182 435.961 123.47 436.749 122.814 437.593C119.815 441.453 118 446.491 118 452.003C118 457.514 119.815 462.553 122.814 466.413C123.47 467.257 124.183 468.045 124.945 468.77C128.231 471.89 132.445 473.828 137.06 473.995Q137.11 473.996 137.161 473.998L137.161 480C137.062 479.998 136.962 479.995 136.863 479.991C134.899 479.922 132.99 479.613 131.161 479.09C120.134 475.936 112 465.004 112 452.003Z" clip-rule="evenodd" fill="#000000" fill-opacity="1.000000" fill-rule="evenodd"/>
		<mask id="mask_8_645" fill="white">
			<path id="Subtract" d="M286.161 424.006C272.215 424.323 261 436.736 261 452.003C261 467.27 272.215 479.683 286.161 480L286.161 473.998C275.529 473.674 267 463.951 267 452.003C267 440.055 275.529 430.332 286.161 430.008L286.161 424.006Z" clip-rule="evenodd" fill="" fill-opacity="1.000000" fill-rule="evenodd"/>
		</mask>
		<path id="Subtract" d="M286.161 424.006C272.215 424.323 261 436.736 261 452.003C261 467.27 272.215 479.683 286.161 480L286.161 473.998C275.529 473.674 267 463.951 267 452.003C267 440.055 275.529 430.332 286.161 430.008L286.161 424.006Z" clip-rule="evenodd" fill="#000000" fill-opacity="0.000000" fill-rule="evenodd" mask="url(#mask_8_645)"/>
		<path id="Subtract" d="M261 452.003C261 439.002 269.134 428.07 280.161 424.916C281.99 424.393 283.899 424.084 285.863 424.014C285.962 424.011 286.062 424.008 286.161 424.006L286.161 430.008Q286.11 430.009 286.06 430.011C281.445 430.178 277.231 432.116 273.946 435.235C273.183 435.96 272.47 436.749 271.813 437.594C268.815 441.454 267 446.492 267 452.003C267 457.514 268.815 462.551 271.813 466.412C272.47 467.257 273.183 468.046 273.946 468.77C277.231 471.89 281.445 473.828 286.06 473.995Q286.11 473.996 286.161 473.998L286.161 480C286.062 479.998 285.962 479.995 285.863 479.991C283.899 479.922 281.99 479.613 280.161 479.09C269.134 475.936 261 465.004 261 452.003Z" clip-rule="evenodd" fill="#000000" fill-opacity="1.000000" fill-rule="evenodd"/>
		<mask id="mask_8_589" fill="white">
			<path id="Subtract" d="M437.161 424.006C423.215 424.323 412 436.736 412 452.003C412 467.27 423.215 479.683 437.161 480L437.161 473.998C426.529 473.674 418 463.951 418 452.003C418 440.055 426.529 430.332 437.161 430.008L437.161 424.006Z" clip-rule="evenodd" fill="" fill-opacity="1.000000" fill-rule="evenodd"/>
		</mask>
		<path id="Subtract" d="M437.161 424.006C423.215 424.323 412 436.736 412 452.003C412 467.27 423.215 479.683 437.161 480L437.161 473.998C426.529 473.674 418 463.951 418 452.003C418 440.055 426.529 430.332 437.161 430.008L437.161 424.006Z" clip-rule="evenodd" fill="#000000" fill-opacity="0.000000" fill-rule="evenodd" mask="url(#mask_8_589)"/>
		<path id="Subtract" d="M412 452.003C412 439.002 420.134 428.07 431.161 424.916C432.99 424.393 434.899 424.084 436.863 424.014C436.962 424.011 437.062 424.008 437.161 424.006L437.161 430.008Q437.11 430.009 437.06 430.011C432.445 430.178 428.231 432.116 424.945 435.236C424.182 435.961 423.47 436.749 422.814 437.593C419.815 441.454 418 446.492 418 452.003C418 457.514 419.815 462.552 422.814 466.413C423.47 467.257 424.182 468.045 424.945 468.77C428.231 471.89 432.445 473.828 437.06 473.995Q437.11 473.996 437.161 473.998L437.161 480C437.062 479.998 436.962 479.995 436.863 479.991C434.899 479.922 432.99 479.613 431.161 479.09C420.134 475.936 412 465.004 412 452.003Z" clip-rule="evenodd" fill="#000000" fill-opacity="1.000000" fill-rule="evenodd"/>
		<mask id="mask_8_592" fill="white">
			<path id="Subtract" d="M137.161 238C123.215 238.317 112 250.729 112 265.994C112 281.259 123.215 293.671 137.161 293.988L137.161 287.986C126.529 287.662 118 277.94 118 265.994C118 254.048 126.529 244.326 137.161 244.002L137.161 238Z" clip-rule="evenodd" fill="" fill-opacity="1.000000" fill-rule="evenodd"/>
		</mask>
		<path id="Subtract" d="M137.161 238C123.215 238.317 112 250.729 112 265.994C112 281.259 123.215 293.671 137.161 293.988L137.161 287.986C126.529 287.662 118 277.94 118 265.994C118 254.048 126.529 244.326 137.161 244.002L137.161 238Z" clip-rule="evenodd" fill="#000000" fill-opacity="0.000000" fill-rule="evenodd" mask="url(#mask_8_592)"/>
		<path id="Subtract" d="M112 265.994C112 252.994 120.134 242.064 131.161 238.91C132.99 238.387 134.899 238.078 136.863 238.009C136.962 238.005 137.062 238.002 137.161 238L137.161 244.002Q137.108 244.004 137.052 244.006C132.443 244.174 128.235 246.109 124.953 249.223C124.184 249.951 123.467 250.745 122.807 251.595C119.812 255.454 118 260.488 118 265.994C118 271.512 119.82 276.556 122.826 280.418C123.474 281.25 124.177 282.028 124.929 282.743C128.241 285.895 132.499 287.844 137.161 287.986L137.161 293.988C137.056 293.985 136.952 293.982 136.848 293.979C134.889 293.909 132.985 293.6 131.161 293.078C120.134 289.924 112 278.994 112 265.994Z" clip-rule="evenodd" fill="#000000" fill-opacity="1.000000" fill-rule="evenodd"/>
		<mask id="mask_8_648" fill="white">
			<path id="Subtract" d="M286.161 238C272.215 238.317 261 250.729 261 265.994C261 281.259 272.215 293.671 286.161 293.988L286.161 287.986C275.529 287.662 267 277.94 267 265.994C267 254.048 275.529 244.326 286.161 244.002L286.161 238Z" clip-rule="evenodd" fill="" fill-opacity="1.000000" fill-rule="evenodd"/>
		</mask>
		<path id="Subtract" d="M286.161 238C272.215 238.317 261 250.729 261 265.994C261 281.259 272.215 293.671 286.161 293.988L286.161 287.986C275.529 287.662 267 277.94 267 265.994C267 254.048 275.529 244.326 286.161 244.002L286.161 238Z" clip-rule="evenodd" fill="#000000" fill-opacity="0.000000" fill-rule="evenodd" mask="url(#mask_8_648)"/>
		<path id="Subtract" d="M261 265.994C261 252.994 269.134 242.064 280.161 238.91C281.99 238.387 283.899 238.078 285.863 238.009C285.962 238.005 286.062 238.002 286.161 238L286.161 244.002Q286.108 244.004 286.052 244.006C281.443 244.174 277.235 246.109 273.952 249.223C273.184 249.951 272.467 250.744 271.808 251.594C268.812 255.453 267 260.487 267 265.994C267 271.513 268.82 276.557 271.827 280.419C272.475 281.251 273.177 282.027 273.928 282.742C277.24 285.894 281.498 287.844 286.161 287.986L286.161 293.988C286.056 293.985 285.952 293.982 285.848 293.979C283.889 293.909 281.985 293.6 280.161 293.078C269.134 289.924 261 278.994 261 265.994Z" clip-rule="evenodd" fill="#000000" fill-opacity="1.000000" fill-rule="evenodd"/>
		<mask id="mask_8_595" fill="white">
			<path id="Subtract" d="M437.161 238C423.215 238.317 412 250.729 412 265.994C412 281.259 423.215 293.671 437.161 293.988L437.161 287.986C426.529 287.662 418 277.94 418 265.994C418 254.048 426.529 244.326 437.161 244.002L437.161 238Z" clip-rule="evenodd" fill="" fill-opacity="1.000000" fill-rule="evenodd"/>
		</mask>
		<path id="Subtract" d="M437.161 238C423.215 238.317 412 250.729 412 265.994C412 281.259 423.215 293.671 437.161 293.988L437.161 287.986C426.529 287.662 418 277.94 418 265.994C418 254.048 426.529 244.326 437.161 244.002L437.161 238Z" clip-rule="evenodd" fill="#000000" fill-opacity="0.000000" fill-rule="evenodd" mask="url(#mask_8_595)"/>
		<path id="Subtract" d="M412 265.994C412 252.994 420.134 242.064 431.161 238.91C432.99 238.387 434.899 238.078 436.863 238.009C436.962 238.005 437.062 238.002 437.161 238L437.161 244.002Q437.108 244.004 437.052 244.006C432.443 244.174 428.235 246.109 424.953 249.222C424.184 249.951 423.467 250.745 422.807 251.596C419.812 255.454 418 260.488 418 265.994C418 271.514 419.821 276.559 422.83 280.422C423.477 281.253 424.179 282.029 424.929 282.743C428.241 285.895 432.499 287.844 437.161 287.986L437.161 293.988C437.056 293.985 436.952 293.982 436.848 293.979C434.889 293.909 432.985 293.6 431.161 293.078C420.134 289.924 412 278.994 412 265.994Z" clip-rule="evenodd" fill="#000000" fill-opacity="1.000000" fill-rule="evenodd"/>
		<mask id="mask_8_598" fill="white">
			<path id="Subtract" d="M140.161 120C126.215 120.317 115 132.729 115 147.994C115 163.259 126.215 175.671 140.161 175.988L140.161 169.986C129.529 169.662 121 159.94 121 147.994C121 136.048 129.529 126.326 140.161 126.002L140.161 120Z" clip-rule="evenodd" fill="" fill-opacity="1.000000" fill-rule="evenodd"/>
		</mask>
		<path id="Subtract" d="M140.161 120C126.215 120.317 115 132.729 115 147.994C115 163.259 126.215 175.671 140.161 175.988L140.161 169.986C129.529 169.662 121 159.94 121 147.994C121 136.048 129.529 126.326 140.161 126.002L140.161 120Z" clip-rule="evenodd" fill="#000000" fill-opacity="0.000000" fill-rule="evenodd" mask="url(#mask_8_598)"/>
		<path id="Subtract" d="M115 147.994C115 134.994 123.134 124.064 134.161 120.91C135.99 120.387 137.899 120.078 139.863 120.009C139.962 120.005 140.062 120.002 140.161 120L140.161 126.002Q140.105 126.004 140.052 126.006C135.443 126.174 131.235 128.109 127.953 131.223C127.184 131.951 126.467 132.745 125.807 133.595C122.812 137.454 121 142.488 121 147.994C121 153.512 122.82 158.556 125.826 162.418C126.474 163.25 127.177 164.027 127.929 164.743C131.241 167.894 135.499 169.844 140.161 169.986L140.161 169.986L140.161 175.988C140.056 175.985 139.952 175.982 139.847 175.979C137.888 175.908 135.985 175.6 134.161 175.078C123.134 171.924 115 160.994 115 147.994Z" clip-rule="evenodd" fill="#000000" fill-opacity="1.000000" fill-rule="evenodd"/>
		<mask id="mask_8_651" fill="white">
			<path id="Subtract" d="M289.161 120C275.215 120.317 264 132.729 264 147.994C264 163.259 275.215 175.671 289.161 175.988L289.161 169.986C278.529 169.662 270 159.94 270 147.994C270 136.048 278.529 126.326 289.161 126.002L289.161 120Z" clip-rule="evenodd" fill="" fill-opacity="1.000000" fill-rule="evenodd"/>
		</mask>
		<path id="Subtract" d="M289.161 120C275.215 120.317 264 132.729 264 147.994C264 163.259 275.215 175.671 289.161 175.988L289.161 169.986C278.529 169.662 270 159.94 270 147.994C270 136.048 278.529 126.326 289.161 126.002L289.161 120Z" clip-rule="evenodd" fill="#000000" fill-opacity="0.000000" fill-rule="evenodd" mask="url(#mask_8_651)"/>
		<path id="Subtract" d="M264 147.994C264 134.994 272.134 124.064 283.161 120.91C284.99 120.387 286.899 120.078 288.863 120.009C288.962 120.005 289.062 120.002 289.161 120L289.161 126.002Q289.105 126.004 289.052 126.006C284.443 126.174 280.234 128.109 276.951 131.224C276.184 131.952 275.468 132.744 274.808 133.593C271.813 137.452 270 142.487 270 147.994C270 153.513 271.82 158.557 274.828 162.419C275.475 163.251 276.177 164.027 276.928 164.741C280.239 167.894 284.498 169.844 289.161 169.986L289.161 175.988C289.056 175.985 288.952 175.982 288.847 175.979C286.888 175.908 284.985 175.6 283.161 175.078C272.134 171.924 264 160.994 264 147.994Z" clip-rule="evenodd" fill="#000000" fill-opacity="1.000000" fill-rule="evenodd"/>
		<mask id="mask_8_601" fill="white">
			<path id="Subtract" d="M440.161 120C426.215 120.317 415 132.729 415 147.994C415 163.259 426.215 175.671 440.161 175.988L440.161 169.986C429.529 169.662 421 159.94 421 147.994C421 136.048 429.529 126.326 440.161 126.002L440.161 120Z" clip-rule="evenodd" fill="" fill-opacity="1.000000" fill-rule="evenodd"/>
		</mask>
		<path id="Subtract" d="M440.161 120C426.215 120.317 415 132.729 415 147.994C415 163.259 426.215 175.671 440.161 175.988L440.161 169.986C429.529 169.662 421 159.94 421 147.994C421 136.048 429.529 126.326 440.161 126.002L440.161 120Z" clip-rule="evenodd" fill="#000000" fill-opacity="0.000000" fill-rule="evenodd" mask="url(#mask_8_601)"/>
		<path id="Subtract" d="M415 147.994C415 134.994 423.134 124.064 434.161 120.91C435.99 120.387 437.899 120.078 439.863 120.009C439.962 120.005 440.062 120.002 440.161 120L440.161 126.002Q440.106 126.004 440.052 126.006C435.443 126.174 431.235 128.109 427.953 131.222C427.184 131.951 426.467 132.745 425.807 133.596C422.812 137.454 421 142.488 421 147.994C421 153.512 422.82 158.555 425.826 162.417C426.474 163.25 427.177 164.028 427.929 164.743C431.241 167.895 435.499 169.844 440.161 169.986L440.161 175.988C440.056 175.985 439.952 175.982 439.847 175.979C437.888 175.908 435.985 175.6 434.161 175.078C423.134 171.924 415 160.994 415 147.994Z" clip-rule="evenodd" fill="#000000" fill-opacity="1.000000" fill-rule="evenodd"/>
		<mask id="mask_8_604" fill="white">
			<path id="Subtract" d="M137.161 356C123.215 356.317 112 368.729 112 383.994C112 399.259 123.215 411.671 137.161 411.988L137.161 405.986C126.529 405.662 118 395.94 118 383.994C118 372.048 126.529 362.326 137.161 362.002L137.161 356Z" clip-rule="evenodd" fill="" fill-opacity="1.000000" fill-rule="evenodd"/>
		</mask>
		<path id="Subtract" d="M137.161 356C123.215 356.317 112 368.729 112 383.994C112 399.259 123.215 411.671 137.161 411.988L137.161 405.986C126.529 405.662 118 395.94 118 383.994C118 372.048 126.529 362.326 137.161 362.002L137.161 356Z" clip-rule="evenodd" fill="#000000" fill-opacity="0.000000" fill-rule="evenodd" mask="url(#mask_8_604)"/>
		<path id="Subtract" d="M112 383.994C112 370.994 120.134 360.064 131.161 356.91C132.987 356.388 134.893 356.079 136.855 356.009C136.957 356.005 137.059 356.002 137.161 356L137.161 362.002Q137.106 362.004 137.052 362.006C132.443 362.174 128.235 364.109 124.953 367.223C124.184 367.951 123.467 368.745 122.807 369.595C119.812 373.454 118 378.488 118 383.994C118 389.512 119.82 394.556 122.826 398.418C123.474 399.25 124.177 400.028 124.929 400.743C128.241 403.895 132.499 405.844 137.161 405.986L137.161 411.988C137.056 411.985 136.952 411.982 136.848 411.979C134.889 411.909 132.985 411.6 131.161 411.078C120.134 407.924 112 396.994 112 383.994Z" clip-rule="evenodd" fill="#000000" fill-opacity="1.000000" fill-rule="evenodd"/>
		<mask id="mask_8_654" fill="white">
			<path id="Subtract" d="M286.161 356C272.215 356.317 261 368.729 261 383.994C261 399.259 272.215 411.671 286.161 411.988L286.161 405.986C275.529 405.662 267 395.94 267 383.994C267 372.048 275.529 362.326 286.161 362.002L286.161 356Z" clip-rule="evenodd" fill="" fill-opacity="1.000000" fill-rule="evenodd"/>
		</mask>
		<path id="Subtract" d="M286.161 356C272.215 356.317 261 368.729 261 383.994C261 399.259 272.215 411.671 286.161 411.988L286.161 405.986C275.529 405.662 267 395.94 267 383.994C267 372.048 275.529 362.326 286.161 362.002L286.161 356Z" clip-rule="evenodd" fill="#000000" fill-opacity="0.000000" fill-rule="evenodd" mask="url(#mask_8_654)"/>
		<path id="Subtract" d="M261 383.994C261 370.994 269.134 360.064 280.161 356.91C281.987 356.388 283.893 356.079 285.855 356.009C285.957 356.005 286.059 356.002 286.161 356L286.161 362.002Q286.105 362.004 286.052 362.006C281.443 362.174 277.235 364.109 273.952 367.223C273.185 367.951 272.468 368.744 271.808 369.594C268.812 373.453 267 378.487 267 383.994C267 389.513 268.82 394.557 271.827 398.419C272.475 399.251 273.177 400.027 273.928 400.742C277.24 403.894 281.498 405.844 286.161 405.986L286.161 411.988C286.056 411.985 285.952 411.982 285.848 411.979C283.889 411.909 281.985 411.6 280.161 411.078C269.134 407.924 261 396.994 261 383.994Z" clip-rule="evenodd" fill="#000000" fill-opacity="1.000000" fill-rule="evenodd"/>
		<mask id="mask_8_607" fill="white">
			<path id="Subtract" d="M437.161 356C423.215 356.317 412 368.729 412 383.994C412 399.259 423.215 411.671 437.161 411.988L437.161 405.986C426.529 405.662 418 395.94 418 383.994C418 372.048 426.529 362.326 437.161 362.002L437.161 356Z" clip-rule="evenodd" fill="" fill-opacity="1.000000" fill-rule="evenodd"/>
		</mask>
		<path id="Subtract" d="M437.161 356C423.215 356.317 412 368.729 412 383.994C412 399.259 423.215 411.671 437.161 411.988L437.161 405.986C426.529 405.662 418 395.94 418 383.994C418 372.048 426.529 362.326 437.161 362.002L437.161 356Z" clip-rule="evenodd" fill="#000000" fill-opacity="0.000000" fill-rule="evenodd" mask="url(#mask_8_607)"/>
		<path id="Subtract" d="M412 383.994C412 370.994 420.134 360.064 431.161 356.91C432.987 356.388 434.893 356.079 436.855 356.009C436.957 356.005 437.059 356.002 437.161 356L437.161 362.002Q437.105 362.004 437.052 362.006C432.443 362.174 428.235 364.109 424.953 367.222C424.185 367.951 423.467 368.745 422.807 369.595C419.812 373.454 418 378.488 418 383.994C418 389.514 419.821 394.559 422.83 398.422C423.477 399.253 424.179 400.029 424.929 400.743C428.241 403.895 432.499 405.844 437.161 405.986L437.161 411.988C437.056 411.985 436.952 411.982 436.848 411.979C434.889 411.909 432.985 411.6 431.161 411.078C420.134 407.924 412 396.994 412 383.994Z" clip-rule="evenodd" fill="#000000" fill-opacity="1.000000" fill-rule="evenodd"/>
		<mask id="mask_8_610" fill="white">
			<path id="Subtract" d="M137.161 474C123.215 474.317 112 486.729 112 501.994C112 517.259 123.215 529.671 137.161 529.988L137.161 523.986C126.529 523.662 118 513.94 118 501.994C118 490.048 126.529 480.326 137.161 480.002L137.161 474Z" clip-rule="evenodd" fill="" fill-opacity="1.000000" fill-rule="evenodd"/>
		</mask>
		<path id="Subtract" d="M137.161 474C123.215 474.317 112 486.729 112 501.994C112 517.259 123.215 529.671 137.161 529.988L137.161 523.986C126.529 523.662 118 513.94 118 501.994C118 490.048 126.529 480.326 137.161 480.002L137.161 474Z" clip-rule="evenodd" fill="#000000" fill-opacity="0.000000" fill-rule="evenodd" mask="url(#mask_8_610)"/>
		<path id="Subtract" d="M112 501.994C112 488.994 120.134 478.064 131.161 474.91C132.987 474.388 134.893 474.079 136.855 474.009C136.957 474.005 137.059 474.002 137.161 474L137.161 480.002Q137.106 480.004 137.052 480.006C132.443 480.174 128.235 482.109 124.953 485.223C124.184 485.951 123.467 486.745 122.807 487.595C119.812 491.454 118 496.488 118 501.994C118 507.513 119.82 512.556 122.827 516.418C123.475 517.25 124.178 518.028 124.929 518.743C128.241 521.895 132.499 523.844 137.161 523.986L137.161 529.988C137.056 529.985 136.951 529.982 136.846 529.979C134.888 529.908 132.985 529.6 131.161 529.078C120.134 525.924 112 514.994 112 501.994Z" clip-rule="evenodd" fill="#000000" fill-opacity="1.000000" fill-rule="evenodd"/>
		<mask id="mask_8_657" fill="white">
			<path id="Subtract" d="M286.161 474C272.215 474.317 261 486.729 261 501.994C261 517.259 272.215 529.671 286.161 529.988L286.161 523.986C275.529 523.662 267 513.94 267 501.994C267 490.048 275.529 480.326 286.161 480.002L286.161 474Z" clip-rule="evenodd" fill="" fill-opacity="1.000000" fill-rule="evenodd"/>
		</mask>
		<path id="Subtract" d="M286.161 474C272.215 474.317 261 486.729 261 501.994C261 517.259 272.215 529.671 286.161 529.988L286.161 523.986C275.529 523.662 267 513.94 267 501.994C267 490.048 275.529 480.326 286.161 480.002L286.161 474Z" clip-rule="evenodd" fill="#000000" fill-opacity="0.000000" fill-rule="evenodd" mask="url(#mask_8_657)"/>
		<path id="Subtract" d="M261 501.994C261 488.994 269.134 478.064 280.161 474.91C281.987 474.388 283.893 474.079 285.855 474.009C285.957 474.005 286.059 474.002 286.161 474L286.161 480.002Q286.105 480.004 286.052 480.006C281.443 480.174 277.235 482.109 273.952 485.223C273.185 485.951 272.468 486.744 271.808 487.594C268.812 491.453 267 496.487 267 501.994C267 507.513 268.82 512.557 271.827 516.419C272.475 517.251 273.178 518.028 273.929 518.743C277.241 521.895 281.499 523.844 286.161 523.986L286.161 529.988C286.056 529.985 285.951 529.982 285.847 529.979C283.888 529.908 281.985 529.6 280.161 529.078C269.134 525.924 261 514.994 261 501.994Z" clip-rule="evenodd" fill="#000000" fill-opacity="1.000000" fill-rule="evenodd"/>
		<mask id="mask_8_613" fill="white">
			<path id="Subtract" d="M437.161 474C423.215 474.317 412 486.729 412 501.994C412 517.259 423.215 529.671 437.161 529.988L437.161 523.986C426.529 523.662 418 513.94 418 501.994C418 490.048 426.529 480.326 437.161 480.002L437.161 474Z" clip-rule="evenodd" fill="" fill-opacity="1.000000" fill-rule="evenodd"/>
		</mask>
		<path id="Subtract" d="M437.161 474C423.215 474.317 412 486.729 412 501.994C412 517.259 423.215 529.671 437.161 529.988L437.161 523.986C426.529 523.662 418 513.94 418 501.994C418 490.048 426.529 480.326 437.161 480.002L437.161 474Z" clip-rule="evenodd" fill="#000000" fill-opacity="0.000000" fill-rule="evenodd" mask="url(#mask_8_613)"/>
		<path id="Subtract" d="M412 501.994C412 488.994 420.134 478.064 431.161 474.91C432.987 474.388 434.893 474.079 436.855 474.009C436.957 474.005 437.059 474.002 437.161 474L437.161 480.002Q437.105 480.004 437.052 480.006C432.443 480.174 428.235 482.109 424.953 485.222C424.185 485.951 423.467 486.745 422.807 487.595C419.812 491.454 418 496.488 418 501.994C418 507.512 419.82 512.555 422.826 516.417C423.474 517.25 424.177 518.027 424.929 518.743C428.241 521.895 432.499 523.844 437.161 523.986L437.161 529.988C437.056 529.985 436.951 529.982 436.846 529.979C434.888 529.908 432.985 529.6 431.161 529.078C420.134 525.924 412 514.994 412 501.994Z" clip-rule="evenodd" fill="#000000" fill-opacity="1.000000" fill-rule="evenodd"/>
		<path id="Vector 1" d="M151 -1L151 600" stroke="#000000" stroke-opacity="1.000000" stroke-width="6.000000"/>
		<path id="Vector 57" d="M451 -1L451 600" stroke="#000000" stroke-opacity="1.000000" stroke-width="6.000000"/>
		<path id="Vector 2" d="M300 0L300 601" stroke="#000000" stroke-opacity="1.000000" stroke-width="6.000000"/>
		<circle id="Ellipse 6" cx="151.000000" cy="38.000000" r="17.000000" stroke="#000000" stroke-opacity="1.000000" stroke-width="6.000000"/>
		<circle id="Ellipse 46" cx="300.000000" cy="38.000000" r="17.000000" stroke="#000000" stroke-opacity="1.000000" stroke-width="6.000000"/>
		<circle id="Ellipse 44" cx="451.000000" cy="38.000000" r="17.000000" stroke="#000000" stroke-opacity="1.000000" stroke-width="6.000000"/>
		<circle id="Ellipse 7" cx="151.000000" cy="562.000000" r="17.000000" stroke="#000000" stroke-opacity="1.000000" stroke-width="6.000000"/>
		<circle id="Ellipse 47" cx="300.000000" cy="562.000000" r="17.000000" stroke="#000000" stroke-opacity="1.000000" stroke-width="6.000000"/>
		<circle id="Ellipse 45" cx="451.000000" cy="562.000000" r="17.000000" stroke="#000000" stroke-opacity="1.000000" stroke-width="6.000000"/>
	</g>
</svg>
