<svg width="600.000000" height="600.000000" viewBox="0 0 600 600" fill="none" xmlns="http://www.w3.org/2000/svg" xmlns:xlink="http://www.w3.org/1999/xlink">
	<desc>
			Created with Pixso.
	</desc>
	<defs>
		<clipPath id="clip5_168">
			<rect id="VYKATNOY_RAZJEM+TRANSFORMATOR" width="600.000000" height="600.000000" fill="white" fill-opacity="0"/>
		</clipPath>
	</defs>
	<rect id="VYKATNOY_RAZJEM+TRANSFORMATOR" width="600.000000" height="600.000000" fill="#FFFFFF" fill-opacity="0"/>
	<g clip-path="url(#clip5_168)">
		<path id="Vector 2" d="M300 -4L300 600" stroke="#000000" stroke-opacity="1.000000" stroke-width="6.000000"/>
		<path id="Многоугольник 3" d="M338.1 422L261.89 422L300 488L338.1 422ZM327.71 428L272.28 428L300 476L327.71 428Z" fill="#000000" fill-opacity="1.000000" fill-rule="evenodd"/>
		<path id="Vector" d="M290 513L290 507L328 507L328 513L290 513Z" fill="#000000" fill-opacity="1.000000" fill-rule="evenodd"/>
		<path id="Vector" d="M290 585L290 579L328 579L328 585L290 585Z" fill="#000000" fill-opacity="1.000000" fill-rule="evenodd"/>
		<path id="Vector" d="M290 550L290 542L293 542L293 550L290 550Z" fill="#000000" fill-opacity="1.000000" fill-rule="evenodd"/>
		<mask id="mask_5_174" fill="white">
			<path id="Subtract" d="M290 507C280.023 507.232 272 516.321 272 527.5C272 538.679 280.023 547.769 290 548L290 541.997C283.338 541.756 278 535.357 278 527.5C278 519.643 283.338 513.244 290 513.003L290 507Z" clip-rule="evenodd" fill="" fill-opacity="1.000000" fill-rule="evenodd"/>
		</mask>
		<path id="Subtract" d="M290 507C280.023 507.232 272 516.321 272 527.5C272 538.679 280.023 547.769 290 548L290 541.997C283.338 541.756 278 535.357 278 527.5C278 519.643 283.338 513.244 290 513.003L290 507Z" clip-rule="evenodd" fill="#000000" fill-opacity="0.000000" fill-rule="evenodd" mask="url(#mask_5_174)"/>
		<path id="Subtract" d="M272 527.5C272 518.681 276.994 511.163 284 508.267C285.727 507.554 287.576 507.121 289.502 507.019C289.667 507.01 289.834 507.004 290 507L290 513.003C287.422 513.096 285.042 514.112 283.093 515.777C282.198 516.542 281.393 517.444 280.702 518.457C279.011 520.937 278 524.08 278 527.5C278 530.92 279.011 534.063 280.702 536.543C281.393 537.556 282.198 538.458 283.093 539.223C285.042 540.888 287.422 541.904 290 541.997L290 548C289.827 547.996 289.655 547.989 289.483 547.98C287.563 547.876 285.721 547.444 284 546.733C276.994 543.838 272 536.319 272 527.5Z" clip-rule="evenodd" fill="#000000" fill-opacity="1.000000" fill-rule="evenodd"/>
		<mask id="mask_5_177" fill="white">
			<path id="Subtract" d="M290 544C280.023 544.232 272 553.321 272 564.5C272 575.679 280.023 584.769 290 585L290 578.997C283.338 578.756 278 572.357 278 564.5C278 556.643 283.338 550.244 290 550.003L290 544Z" clip-rule="evenodd" fill="" fill-opacity="1.000000" fill-rule="evenodd"/>
		</mask>
		<path id="Subtract" d="M290 544C280.023 544.232 272 553.321 272 564.5C272 575.679 280.023 584.769 290 585L290 578.997C283.338 578.756 278 572.357 278 564.5C278 556.643 283.338 550.244 290 550.003L290 544Z" clip-rule="evenodd" fill="#000000" fill-opacity="0.000000" fill-rule="evenodd" mask="url(#mask_5_177)"/>
		<path id="Subtract" d="M272 564.5C272 555.681 276.994 548.163 284 545.267C285.727 544.554 287.576 544.121 289.503 544.019C289.668 544.01 289.834 544.004 290 544L290 550.003C287.422 550.096 285.042 551.112 283.093 552.777C282.198 553.542 281.393 554.444 280.702 555.457C279.011 557.937 278 561.08 278 564.5C278 567.92 279.011 571.063 280.702 573.543C281.393 574.556 282.198 575.458 283.093 576.223C285.042 577.888 287.422 578.904 290 578.997L290 585C289.827 584.996 289.655 584.989 289.483 584.98C287.563 584.876 285.721 584.444 284 583.733C276.994 580.838 272 573.319 272 564.5Z" clip-rule="evenodd" fill="#000000" fill-opacity="1.000000" fill-rule="evenodd"/>
	</g>
</svg>
